<?xml version="1.0" standalone="yes"?>

<svg version="1.1" viewBox="0.0 0.0 960.0 256.0" fill="none" stroke="none" stroke-linecap="square" stroke-miterlimit="10" xmlns="http://www.w3.org/2000/svg" xmlns:xlink="http://www.w3.org/1999/xlink"><clipPath id="p.0"><path d="m0 0l960.0 0l0 256.0l-960.0 0l0 -256.0z" clip-rule="nonzero"></path></clipPath><g clip-path="url(#p.0)"><path fill="#000000" fill-opacity="0.0" d="m0 0l960.41205 0l0 256.43832l-960.41205 0z" fill-rule="nonzero"></path><path fill="#cfe2f3" d="m249.12073 29.614061l512.0315 0l0 32.094482l-512.0315 0z" fill-rule="nonzero"></path><path stroke="#000000" stroke-width="2.0" stroke-linejoin="round" stroke-linecap="butt" d="m249.12073 29.614061l512.0315 0l0 32.094482l-512.0315 0z" fill-rule="nonzero"></path><path fill="#000000" fill-opacity="0.0" d="m249.12027 30.87664l0 30.834648" fill-rule="nonzero"></path><path stroke="#000000" stroke-width="2.0" stroke-linejoin="round" stroke-linecap="butt" d="m249.12027 30.87664l0 30.834648" fill-rule="nonzero"></path><path fill="#000000" fill-opacity="0.0" d="m265.12027 30.87664l0 30.834648" fill-rule="nonzero"></path><path stroke="#000000" stroke-width="2.0" stroke-linejoin="round" stroke-linecap="butt" d="m265.12027 30.87664l0 30.834648" fill-rule="nonzero"></path><path fill="#000000" fill-opacity="0.0" d="m281.12027 30.87664l0 30.834648" fill-rule="nonzero"></path><path stroke="#000000" stroke-width="2.0" stroke-linejoin="round" stroke-linecap="butt" d="m281.12027 30.87664l0 30.834648" fill-rule="nonzero"></path><path fill="#000000" fill-opacity="0.0" d="m297.12027 30.87664l0 30.834648" fill-rule="nonzero"></path><path stroke="#000000" stroke-width="2.0" stroke-linejoin="round" stroke-linecap="butt" d="m297.12027 30.87664l0 30.834648" fill-rule="nonzero"></path><path fill="#000000" fill-opacity="0.0" d="m313.12027 30.87664l0 30.834648" fill-rule="nonzero"></path><path stroke="#000000" stroke-width="2.0" stroke-linejoin="round" stroke-linecap="butt" d="m313.12027 30.87664l0 30.834648" fill-rule="nonzero"></path><path fill="#000000" fill-opacity="0.0" d="m329.12027 30.87664l0 30.834648" fill-rule="nonzero"></path><path stroke="#000000" stroke-width="2.0" stroke-linejoin="round" stroke-linecap="butt" d="m329.12027 30.87664l0 30.834648" fill-rule="nonzero"></path><path fill="#000000" fill-opacity="0.0" d="m345.12027 30.87664l0 30.834648" fill-rule="nonzero"></path><path stroke="#000000" stroke-width="2.0" stroke-linejoin="round" stroke-linecap="butt" d="m345.12027 30.87664l0 30.834648" fill-rule="nonzero"></path><path fill="#000000" fill-opacity="0.0" d="m361.12027 30.87664l0 30.834648" fill-rule="nonzero"></path><path stroke="#000000" stroke-width="2.0" stroke-linejoin="round" stroke-linecap="butt" d="m361.12027 30.87664l0 30.834648" fill-rule="nonzero"></path><path fill="#000000" fill-opacity="0.0" d="m377.12027 30.87664l0 30.834648" fill-rule="nonzero"></path><path stroke="#000000" stroke-width="2.0" stroke-linejoin="round" stroke-linecap="butt" d="m377.12027 30.87664l0 30.834648" fill-rule="nonzero"></path><path fill="#000000" fill-opacity="0.0" d="m393.12027 30.87664l0 30.834648" fill-rule="nonzero"></path><path stroke="#000000" stroke-width="2.0" stroke-linejoin="round" stroke-linecap="butt" d="m393.12027 30.87664l0 30.834648" fill-rule="nonzero"></path><path fill="#000000" fill-opacity="0.0" d="m409.12027 30.87664l0 30.834648" fill-rule="nonzero"></path><path stroke="#000000" stroke-width="2.0" stroke-linejoin="round" stroke-linecap="butt" d="m409.12027 30.87664l0 30.834648" fill-rule="nonzero"></path><path fill="#000000" fill-opacity="0.0" d="m425.12027 30.87664l0 30.834648" fill-rule="nonzero"></path><path stroke="#000000" stroke-width="2.0" stroke-linejoin="round" stroke-linecap="butt" d="m425.12027 30.87664l0 30.834648" fill-rule="nonzero"></path><path fill="#000000" fill-opacity="0.0" d="m441.12027 30.87664l0 30.834648" fill-rule="nonzero"></path><path stroke="#000000" stroke-width="2.0" stroke-linejoin="round" stroke-linecap="butt" d="m441.12027 30.87664l0 30.834648" fill-rule="nonzero"></path><path fill="#000000" fill-opacity="0.0" d="m457.12027 30.87664l0 30.834648" fill-rule="nonzero"></path><path stroke="#000000" stroke-width="2.0" stroke-linejoin="round" stroke-linecap="butt" d="m457.12027 30.87664l0 30.834648" fill-rule="nonzero"></path><path fill="#000000" fill-opacity="0.0" d="m473.12027 30.87664l0 30.834648" fill-rule="nonzero"></path><path stroke="#000000" stroke-width="2.0" stroke-linejoin="round" stroke-linecap="butt" d="m473.12027 30.87664l0 30.834648" fill-rule="nonzero"></path><path fill="#000000" fill-opacity="0.0" d="m489.12027 30.87664l0 30.834648" fill-rule="nonzero"></path><path stroke="#000000" stroke-width="2.0" stroke-linejoin="round" stroke-linecap="butt" d="m489.12027 30.87664l0 30.834648" fill-rule="nonzero"></path><path fill="#000000" fill-opacity="0.0" d="m505.12027 30.87664l0 30.834648" fill-rule="nonzero"></path><path stroke="#000000" stroke-width="2.0" stroke-linejoin="round" stroke-linecap="butt" d="m505.12027 30.87664l0 30.834648" fill-rule="nonzero"></path><path fill="#000000" fill-opacity="0.0" d="m521.1203 30.87664l0 30.834648" fill-rule="nonzero"></path><path stroke="#000000" stroke-width="2.0" stroke-linejoin="round" stroke-linecap="butt" d="m521.1203 30.87664l0 30.834648" fill-rule="nonzero"></path><path fill="#000000" fill-opacity="0.0" d="m537.1203 30.87664l0 30.834648" fill-rule="nonzero"></path><path stroke="#000000" stroke-width="2.0" stroke-linejoin="round" stroke-linecap="butt" d="m537.1203 30.87664l0 30.834648" fill-rule="nonzero"></path><path fill="#000000" fill-opacity="0.0" d="m553.1203 30.87664l0 30.834648" fill-rule="nonzero"></path><path stroke="#000000" stroke-width="2.0" stroke-linejoin="round" stroke-linecap="butt" d="m553.1203 30.87664l0 30.834648" fill-rule="nonzero"></path><path fill="#000000" fill-opacity="0.0" d="m569.1203 30.87664l0 30.834648" fill-rule="nonzero"></path><path stroke="#000000" stroke-width="2.0" stroke-linejoin="round" stroke-linecap="butt" d="m569.1203 30.87664l0 30.834648" fill-rule="nonzero"></path><path fill="#000000" fill-opacity="0.0" d="m585.1203 30.87664l0 30.834648" fill-rule="nonzero"></path><path stroke="#000000" stroke-width="2.0" stroke-linejoin="round" stroke-linecap="butt" d="m585.1203 30.87664l0 30.834648" fill-rule="nonzero"></path><path fill="#000000" fill-opacity="0.0" d="m601.1203 30.87664l0 30.834648" fill-rule="nonzero"></path><path stroke="#000000" stroke-width="2.0" stroke-linejoin="round" stroke-linecap="butt" d="m601.1203 30.87664l0 30.834648" fill-rule="nonzero"></path><path fill="#000000" fill-opacity="0.0" d="m617.1203 30.87664l0 30.834648" fill-rule="nonzero"></path><path stroke="#000000" stroke-width="2.0" stroke-linejoin="round" stroke-linecap="butt" d="m617.1203 30.87664l0 30.834648" fill-rule="nonzero"></path><path fill="#000000" fill-opacity="0.0" d="m633.1203 30.87664l0 30.834648" fill-rule="nonzero"></path><path stroke="#000000" stroke-width="2.0" stroke-linejoin="round" stroke-linecap="butt" d="m633.1203 30.87664l0 30.834648" fill-rule="nonzero"></path><path fill="#000000" fill-opacity="0.0" d="m649.1203 30.87664l0 30.834648" fill-rule="nonzero"></path><path stroke="#000000" stroke-width="2.0" stroke-linejoin="round" stroke-linecap="butt" d="m649.1203 30.87664l0 30.834648" fill-rule="nonzero"></path><path fill="#000000" fill-opacity="0.0" d="m665.1203 30.87664l0 30.834648" fill-rule="nonzero"></path><path stroke="#000000" stroke-width="2.0" stroke-linejoin="round" stroke-linecap="butt" d="m665.1203 30.87664l0 30.834648" fill-rule="nonzero"></path><path fill="#000000" fill-opacity="0.0" d="m681.1203 30.87664l0 30.834648" fill-rule="nonzero"></path><path stroke="#000000" stroke-width="2.0" stroke-linejoin="round" stroke-linecap="butt" d="m681.1203 30.87664l0 30.834648" fill-rule="nonzero"></path><path fill="#000000" fill-opacity="0.0" d="m697.1203 30.87664l0 30.834648" fill-rule="nonzero"></path><path stroke="#000000" stroke-width="2.0" stroke-linejoin="round" stroke-linecap="butt" d="m697.1203 30.87664l0 30.834648" fill-rule="nonzero"></path><path fill="#000000" fill-opacity="0.0" d="m713.1203 30.87664l0 30.834648" fill-rule="nonzero"></path><path stroke="#000000" stroke-width="2.0" stroke-linejoin="round" stroke-linecap="butt" d="m713.1203 30.87664l0 30.834648" fill-rule="nonzero"></path><path fill="#000000" fill-opacity="0.0" d="m729.1203 30.87664l0 30.834648" fill-rule="nonzero"></path><path stroke="#000000" stroke-width="2.0" stroke-linejoin="round" stroke-linecap="butt" d="m729.1203 30.87664l0 30.834648" fill-rule="nonzero"></path><path fill="#000000" fill-opacity="0.0" d="m745.1203 30.87664l0 30.834648" fill-rule="nonzero"></path><path stroke="#000000" stroke-width="2.0" stroke-linejoin="round" stroke-linecap="butt" d="m745.1203 30.87664l0 30.834648" fill-rule="nonzero"></path><path fill="#000000" fill-opacity="0.0" d="m761.1203 30.87664l0 30.834648" fill-rule="nonzero"></path><path stroke="#000000" stroke-width="2.0" stroke-linejoin="round" stroke-linecap="butt" d="m761.1203 30.87664l0 30.834648" fill-rule="nonzero"></path><path fill="#ffffff" d="m432.01837 34.228348l130.20471 0l0 21.606297l-130.20471 0z" fill-rule="nonzero"></path><path fill="#000000" d="m455.42816 41.18587q0.171875 -0.234375 0.375 -0.359375q0.21875 -0.125 0.453125 -0.125q0.421875 0 0.6875 0.296875q0.265625 0.28125 0.265625 0.96875l0 1.609375q0 0.6875 -0.265625 0.984375q-0.265625 0.296875 -0.6875 0.296875q-0.375 0 -0.609375 -0.21875q-0.234375 -0.21875 -0.34375 -0.796875q-0.0625 -0.390625 -0.265625 -0.609375q-0.375 -0.40625 -1.0625 -0.65625q-0.671875 -0.25 -1.359375 -0.25q-0.859375 0 -1.578125 0.375q-0.703125 0.359375 -1.25 1.203125q-0.546875 0.828125 -0.546875 1.984375l0 1.234375q0 1.375 0.984375 2.296875q1.0 0.90625 2.78125 0.90625q1.046875 0 1.78125 -0.28125q0.4375 -0.171875 0.921875 -0.65625q0.296875 -0.296875 0.453125 -0.390625q0.171875 -0.09375 0.390625 -0.09375q0.375 0 0.65625 0.296875q0.296875 0.28125 0.296875 0.671875q0 0.390625 -0.390625 0.828125q-0.5625 0.65625 -1.453125 1.03125q-1.203125 0.5 -2.65625 0.5q-1.6875 0 -3.03125 -0.703125q-1.09375 -0.546875 -1.875 -1.75q-0.765625 -1.203125 -0.765625 -2.625l0 -1.296875q0 -1.484375 0.6875 -2.765625q0.6875 -1.28125 1.90625 -1.96875q1.234375 -0.703125 2.609375 -0.703125q0.828125 0 1.546875 0.1875q0.71875 0.1875 1.34375 0.578125zm6.2424316 -1.265625l0 4.046875q0.59375 -0.34375 1.203125 -0.515625q0.609375 -0.171875 1.234375 -0.171875q0.984375 0 1.75 0.34375q0.765625 0.328125 1.265625 1.046875q0.515625 0.71875 0.515625 1.8125l0 3.5625q0.71875 0 0.953125 0.140625q0.4375 0.296875 0.4375 0.8125q0 0.421875 -0.296875 0.6875q-0.28125 0.265625 -0.96875 0.265625l-2.171875 0q-0.671875 0 -0.96875 -0.265625q-0.28125 -0.265625 -0.28125 -0.6875q0 -0.515625 0.4375 -0.8125q0.234375 -0.140625 0.953125 -0.140625l0 -3.4375q0 -0.734375 -0.34375 -1.03125q-0.4375 -0.390625 -1.28125 -0.390625q-0.640625 0 -1.125 0.25q-0.484375 0.234375 -1.3125 1.046875l0 3.5625q0.734375 0 0.953125 0.140625q0.453125 0.296875 0.453125 0.8125q0 0.421875 -0.296875 0.6875q-0.28125 0.265625 -0.96875 0.265625l-2.171875 0q-0.6875 0 -0.984375 -0.265625q-0.28125 -0.265625 -0.28125 -0.6875q0 -0.515625 0.453125 -0.8125q0.21875 -0.140625 0.953125 -0.140625l0 -8.21875l-0.328125 0q-0.6875 0 -0.984375 -0.265625q-0.296875 -0.265625 -0.296875 -0.703125q0 -0.40625 0.296875 -0.671875q0.296875 -0.265625 0.984375 -0.265625l2.21875 0zm14.867462 12.03125l0 -0.453125q-0.703125 0.390625 -1.578125 0.578125q-0.859375 0.1875 -1.5625 0.1875q-1.53125 0 -2.484375 -0.8125q-0.953125 -0.8125 -0.953125 -1.796875q0 -1.1875 1.21875 -2.203125q1.21875 -1.03125 3.375 -1.03125q0.859375 0 1.984375 0.171875l0 -0.453125q0 -0.421875 -0.359375 -0.6875q-0.359375 -0.265625 -1.390625 -0.265625q-0.84375 0 -2.203125 0.328125q-0.5 0.125 -0.765625 0.125q-0.390625 0 -0.65625 -0.265625q-0.265625 -0.28125 -0.265625 -0.71875q0 -0.234375 0.09375 -0.40625q0.09375 -0.1875 0.265625 -0.28125q0.171875 -0.109375 0.703125 -0.265625q0.703125 -0.1875 1.421875 -0.296875q0.734375 -0.125 1.328125 -0.125q1.78125 0 2.75 0.765625q0.984375 0.765625 0.984375 2.09375l0 3.90625l0.328125 0q0.6875 0 0.96875 0.265625q0.296875 0.265625 0.296875 0.6875q0 0.421875 -0.296875 0.6875q-0.28125 0.265625 -0.96875 0.265625l-2.234375 0zm0 -3.40625q-1.140625 -0.21875 -2.09375 -0.21875q-1.171875 0 -2.0 0.5625q-0.515625 0.359375 -0.515625 0.734375q0 0.265625 0.25 0.4375q0.453125 0.296875 1.265625 0.296875q0.6875 0 1.546875 -0.265625q0.875 -0.265625 1.546875 -0.734375l0 -0.8125zm7.5705566 -5.015625l0 0.640625q0.515625 -0.453125 1.140625 -0.671875q0.625 -0.21875 1.359375 -0.21875q1.6875 0 2.671875 1.046875q0.78125 0.828125 0.78125 2.1875l0 3.53125q0.59375 0 0.875 0.265625q0.296875 0.265625 0.296875 0.6875q0 0.421875 -0.296875 0.6875q-0.28125 0.265625 -0.96875 0.265625l-1.71875 0q-0.6875 0 -0.984375 -0.265625q-0.28125 -0.265625 -0.28125 -0.6875q0 -0.421875 0.28125 -0.6875q0.296875 -0.265625 0.890625 -0.265625l0 -3.59375q0 -0.609375 -0.328125 -0.90625q-0.4375 -0.359375 -1.3125 -0.359375q-0.65625 0 -1.15625 0.25q-0.5 0.25 -1.25 1.078125l0 3.53125q0.734375 0 0.9375 0.140625q0.453125 0.28125 0.453125 0.8125q0 0.421875 -0.296875 0.6875q-0.28125 0.265625 -0.96875 0.265625l-2.15625 0q-0.6875 0 -0.984375 -0.265625q-0.296875 -0.265625 -0.296875 -0.6875q0 -0.515625 0.453125 -0.8125q0.21875 -0.140625 0.953125 -0.140625l0 -4.609375q-0.609375 0 -0.890625 -0.265625q-0.28125 -0.28125 -0.28125 -0.703125q0 -0.40625 0.28125 -0.671875q0.296875 -0.265625 0.984375 -0.265625l1.8125 0zm11.195587 0l0 0.640625q0.515625 -0.453125 1.140625 -0.671875q0.625 -0.21875 1.359375 -0.21875q1.6875 0 2.671875 1.046875q0.78125 0.828125 0.78125 2.1875l0 3.53125q0.59375 0 0.875 0.265625q0.296875 0.265625 0.296875 0.6875q0 0.421875 -0.296875 0.6875q-0.28125 0.265625 -0.96875 0.265625l-1.71875 0q-0.6875 0 -0.984375 -0.265625q-0.28125 -0.265625 -0.28125 -0.6875q0 -0.421875 0.28125 -0.6875q0.296875 -0.265625 0.890625 -0.265625l0 -3.59375q0 -0.609375 -0.328125 -0.90625q-0.4375 -0.359375 -1.3125 -0.359375q-0.65625 0 -1.15625 0.25q-0.5 0.25 -1.25 1.078125l0 3.53125q0.734375 0 0.9375 0.140625q0.453125 0.28125 0.453125 0.8125q0 0.421875 -0.296875 0.6875q-0.28125 0.265625 -0.96875 0.265625l-2.15625 0q-0.6875 0 -0.984375 -0.265625q-0.296875 -0.265625 -0.296875 -0.6875q0 -0.515625 0.453125 -0.8125q0.21875 -0.140625 0.953125 -0.140625l0 -4.609375q-0.609375 0 -0.890625 -0.265625q-0.28125 -0.28125 -0.28125 -0.703125q0 -0.40625 0.28125 -0.671875q0.296875 -0.265625 0.984375 -0.265625l1.8125 0zm17.883057 5.171875l-7.7968445 0q0.296875 0.75 1.046875 1.203125q0.765625 0.453125 2.046875 0.453125q1.0625 0 2.8125 -0.453125q0.7343445 -0.1875 0.9999695 -0.1875q0.390625 0 0.640625 0.265625q0.265625 0.265625 0.265625 0.671875q0 0.375 -0.28125 0.640625q-0.375 0.34375 -1.8124695 0.65625q-1.4375 0.3125 -2.765625 0.3125q-2.28125 0 -3.65625 -1.28125q-1.359375 -1.296875 -1.359375 -3.1875q0 -2.0 1.484375 -3.25q1.484375 -1.265625 3.40625 -1.265625q1.15625 0 2.125 0.40625q0.96875 0.40625 1.453125 0.875q0.6562195 0.6875 1.0937195 1.703125q0.296875 0.703125 0.296875 1.640625l0 0.796875zm-2.0937195 -1.90625q-0.4375 -0.8125 -1.15625 -1.203125q-0.703125 -0.40625 -1.671875 -0.40625q-0.96875 0 -1.671875 0.40625q-0.703125 0.390625 -1.140625 1.203125l5.640625 0zm9.476837 -6.875l0 10.125l2.28125 0q0.6875 0 0.96875 0.265625q0.296875 0.265625 0.296875 0.6875q0 0.421875 -0.296875 0.6875q-0.28125 0.265625 -0.96875 0.265625l-6.46875 0q-0.6875 0 -0.984375 -0.265625q-0.28125 -0.265625 -0.28125 -0.6875q0 -0.421875 0.28125 -0.6875q0.296875 -0.265625 0.984375 -0.265625l2.28125 0l0 -8.21875l-1.53125 0q-0.671875 0 -0.96875 -0.265625q-0.296875 -0.265625 -0.296875 -0.703125q0 -0.40625 0.28125 -0.671875q0.296875 -0.265625 0.984375 -0.265625l3.4375 0zm25.594238 4.96875l0 2.09375q0 1.84375 -1.078125 3.546875q-1.078125 1.703125 -3.0625 1.703125q-1.15625 0 -1.953125 -0.5q-0.78125 -0.515625 -1.5 -1.875q-0.703125 -1.359375 -0.703125 -2.875l0 -2.09375q0 -1.84375 1.0625 -3.546875q1.0625 -1.703125 3.0625 -1.703125q1.140625 0 1.9375 0.5q0.796875 0.5 1.515625 1.859375q0.71875 1.359375 0.71875 2.890625zm-1.921875 0q0 -1.546875 -0.859375 -2.703125q-0.484375 -0.640625 -1.375 -0.640625q-0.875 0 -1.421875 0.703125q-0.828125 1.0625 -0.828125 2.640625l0 2.09375q0 1.546875 0.875 2.703125q0.484375 0.640625 1.390625 0.640625q0.84375 0 1.390625 -0.703125q0.828125 -1.0625 0.828125 -2.640625l0 -2.09375z" fill-rule="nonzero"></path><path fill="#cfe2f3" d="m249.12073 76.383255l512.0315 0l0 32.094482l-512.0315 0z" fill-rule="nonzero"></path><path stroke="#000000" stroke-width="2.0" stroke-linejoin="round" stroke-linecap="butt" d="m249.12073 76.383255l512.0315 0l0 32.094482l-512.0315 0z" fill-rule="nonzero"></path><path fill="#000000" fill-opacity="0.0" d="m249.12027 77.64376l0 30.834648" fill-rule="nonzero"></path><path stroke="#000000" stroke-width="2.0" stroke-linejoin="round" stroke-linecap="butt" d="m249.12027 77.64376l0 30.834648" fill-rule="nonzero"></path><path fill="#000000" fill-opacity="0.0" d="m265.12027 77.64376l0 30.834648" fill-rule="nonzero"></path><path stroke="#000000" stroke-width="2.0" stroke-linejoin="round" stroke-linecap="butt" d="m265.12027 77.64376l0 30.834648" fill-rule="nonzero"></path><path fill="#000000" fill-opacity="0.0" d="m281.12027 77.64376l0 30.834648" fill-rule="nonzero"></path><path stroke="#000000" stroke-width="2.0" stroke-linejoin="round" stroke-linecap="butt" d="m281.12027 77.64376l0 30.834648" fill-rule="nonzero"></path><path fill="#000000" fill-opacity="0.0" d="m297.12027 77.64376l0 30.834648" fill-rule="nonzero"></path><path stroke="#000000" stroke-width="2.0" stroke-linejoin="round" stroke-linecap="butt" d="m297.12027 77.64376l0 30.834648" fill-rule="nonzero"></path><path fill="#000000" fill-opacity="0.0" d="m313.12027 77.64376l0 30.834648" fill-rule="nonzero"></path><path stroke="#000000" stroke-width="2.0" stroke-linejoin="round" stroke-linecap="butt" d="m313.12027 77.64376l0 30.834648" fill-rule="nonzero"></path><path fill="#000000" fill-opacity="0.0" d="m329.12027 77.64376l0 30.834648" fill-rule="nonzero"></path><path stroke="#000000" stroke-width="2.0" stroke-linejoin="round" stroke-linecap="butt" d="m329.12027 77.64376l0 30.834648" fill-rule="nonzero"></path><path fill="#000000" fill-opacity="0.0" d="m345.12027 77.64376l0 30.834648" fill-rule="nonzero"></path><path stroke="#000000" stroke-width="2.0" stroke-linejoin="round" stroke-linecap="butt" d="m345.12027 77.64376l0 30.834648" fill-rule="nonzero"></path><path fill="#000000" fill-opacity="0.0" d="m361.12027 77.64376l0 30.834648" fill-rule="nonzero"></path><path stroke="#000000" stroke-width="2.0" stroke-linejoin="round" stroke-linecap="butt" d="m361.12027 77.64376l0 30.834648" fill-rule="nonzero"></path><path fill="#000000" fill-opacity="0.0" d="m377.12027 77.64376l0 30.834648" fill-rule="nonzero"></path><path stroke="#000000" stroke-width="2.0" stroke-linejoin="round" stroke-linecap="butt" d="m377.12027 77.64376l0 30.834648" fill-rule="nonzero"></path><path fill="#000000" fill-opacity="0.0" d="m393.12027 77.64376l0 30.834648" fill-rule="nonzero"></path><path stroke="#000000" stroke-width="2.0" stroke-linejoin="round" stroke-linecap="butt" d="m393.12027 77.64376l0 30.834648" fill-rule="nonzero"></path><path fill="#000000" fill-opacity="0.0" d="m409.12027 77.64376l0 30.834648" fill-rule="nonzero"></path><path stroke="#000000" stroke-width="2.0" stroke-linejoin="round" stroke-linecap="butt" d="m409.12027 77.64376l0 30.834648" fill-rule="nonzero"></path><path fill="#000000" fill-opacity="0.0" d="m425.12027 77.64376l0 30.834648" fill-rule="nonzero"></path><path stroke="#000000" stroke-width="2.0" stroke-linejoin="round" stroke-linecap="butt" d="m425.12027 77.64376l0 30.834648" fill-rule="nonzero"></path><path fill="#000000" fill-opacity="0.0" d="m441.12027 77.64376l0 30.834648" fill-rule="nonzero"></path><path stroke="#000000" stroke-width="2.0" stroke-linejoin="round" stroke-linecap="butt" d="m441.12027 77.64376l0 30.834648" fill-rule="nonzero"></path><path fill="#000000" fill-opacity="0.0" d="m457.12027 77.64376l0 30.834648" fill-rule="nonzero"></path><path stroke="#000000" stroke-width="2.0" stroke-linejoin="round" stroke-linecap="butt" d="m457.12027 77.64376l0 30.834648" fill-rule="nonzero"></path><path fill="#000000" fill-opacity="0.0" d="m473.12027 77.64376l0 30.834648" fill-rule="nonzero"></path><path stroke="#000000" stroke-width="2.0" stroke-linejoin="round" stroke-linecap="butt" d="m473.12027 77.64376l0 30.834648" fill-rule="nonzero"></path><path fill="#000000" fill-opacity="0.0" d="m489.12027 77.64376l0 30.834648" fill-rule="nonzero"></path><path stroke="#000000" stroke-width="2.0" stroke-linejoin="round" stroke-linecap="butt" d="m489.12027 77.64376l0 30.834648" fill-rule="nonzero"></path><path fill="#000000" fill-opacity="0.0" d="m505.12027 77.64376l0 30.834648" fill-rule="nonzero"></path><path stroke="#000000" stroke-width="2.0" stroke-linejoin="round" stroke-linecap="butt" d="m505.12027 77.64376l0 30.834648" fill-rule="nonzero"></path><path fill="#000000" fill-opacity="0.0" d="m521.1203 77.64376l0 30.834648" fill-rule="nonzero"></path><path stroke="#000000" stroke-width="2.0" stroke-linejoin="round" stroke-linecap="butt" d="m521.1203 77.64376l0 30.834648" fill-rule="nonzero"></path><path fill="#000000" fill-opacity="0.0" d="m537.1203 77.64376l0 30.834648" fill-rule="nonzero"></path><path stroke="#000000" stroke-width="2.0" stroke-linejoin="round" stroke-linecap="butt" d="m537.1203 77.64376l0 30.834648" fill-rule="nonzero"></path><path fill="#000000" fill-opacity="0.0" d="m553.1203 77.64376l0 30.834648" fill-rule="nonzero"></path><path stroke="#000000" stroke-width="2.0" stroke-linejoin="round" stroke-linecap="butt" d="m553.1203 77.64376l0 30.834648" fill-rule="nonzero"></path><path fill="#000000" fill-opacity="0.0" d="m569.1203 77.64376l0 30.834648" fill-rule="nonzero"></path><path stroke="#000000" stroke-width="2.0" stroke-linejoin="round" stroke-linecap="butt" d="m569.1203 77.64376l0 30.834648" fill-rule="nonzero"></path><path fill="#000000" fill-opacity="0.0" d="m585.1203 77.64376l0 30.834648" fill-rule="nonzero"></path><path stroke="#000000" stroke-width="2.0" stroke-linejoin="round" stroke-linecap="butt" d="m585.1203 77.64376l0 30.834648" fill-rule="nonzero"></path><path fill="#000000" fill-opacity="0.0" d="m601.1203 77.64376l0 30.834648" fill-rule="nonzero"></path><path stroke="#000000" stroke-width="2.0" stroke-linejoin="round" stroke-linecap="butt" d="m601.1203 77.64376l0 30.834648" fill-rule="nonzero"></path><path fill="#000000" fill-opacity="0.0" d="m617.1203 77.64376l0 30.834648" fill-rule="nonzero"></path><path stroke="#000000" stroke-width="2.0" stroke-linejoin="round" stroke-linecap="butt" d="m617.1203 77.64376l0 30.834648" fill-rule="nonzero"></path><path fill="#000000" fill-opacity="0.0" d="m633.1203 77.64376l0 30.834648" fill-rule="nonzero"></path><path stroke="#000000" stroke-width="2.0" stroke-linejoin="round" stroke-linecap="butt" d="m633.1203 77.64376l0 30.834648" fill-rule="nonzero"></path><path fill="#000000" fill-opacity="0.0" d="m649.1203 77.64376l0 30.834648" fill-rule="nonzero"></path><path stroke="#000000" stroke-width="2.0" stroke-linejoin="round" stroke-linecap="butt" d="m649.1203 77.64376l0 30.834648" fill-rule="nonzero"></path><path fill="#000000" fill-opacity="0.0" d="m665.1203 77.64376l0 30.834648" fill-rule="nonzero"></path><path stroke="#000000" stroke-width="2.0" stroke-linejoin="round" stroke-linecap="butt" d="m665.1203 77.64376l0 30.834648" fill-rule="nonzero"></path><path fill="#000000" fill-opacity="0.0" d="m681.1203 77.64376l0 30.834648" fill-rule="nonzero"></path><path stroke="#000000" stroke-width="2.0" stroke-linejoin="round" stroke-linecap="butt" d="m681.1203 77.64376l0 30.834648" fill-rule="nonzero"></path><path fill="#000000" fill-opacity="0.0" d="m697.1203 77.64376l0 30.834648" fill-rule="nonzero"></path><path stroke="#000000" stroke-width="2.0" stroke-linejoin="round" stroke-linecap="butt" d="m697.1203 77.64376l0 30.834648" fill-rule="nonzero"></path><path fill="#000000" fill-opacity="0.0" d="m713.1203 77.64376l0 30.834648" fill-rule="nonzero"></path><path stroke="#000000" stroke-width="2.0" stroke-linejoin="round" stroke-linecap="butt" d="m713.1203 77.64376l0 30.834648" fill-rule="nonzero"></path><path fill="#000000" fill-opacity="0.0" d="m729.1203 77.64376l0 30.834648" fill-rule="nonzero"></path><path stroke="#000000" stroke-width="2.0" stroke-linejoin="round" stroke-linecap="butt" d="m729.1203 77.64376l0 30.834648" fill-rule="nonzero"></path><path fill="#000000" fill-opacity="0.0" d="m745.1203 77.64376l0 30.834648" fill-rule="nonzero"></path><path stroke="#000000" stroke-width="2.0" stroke-linejoin="round" stroke-linecap="butt" d="m745.1203 77.64376l0 30.834648" fill-rule="nonzero"></path><path fill="#000000" fill-opacity="0.0" d="m761.1203 77.64376l0 30.834648" fill-rule="nonzero"></path><path stroke="#000000" stroke-width="2.0" stroke-linejoin="round" stroke-linecap="butt" d="m761.1203 77.64376l0 30.834648" fill-rule="nonzero"></path><path fill="#ffffff" d="m432.01837 80.99547l130.20471 0l0 21.6063l-130.20471 0z" fill-rule="nonzero"></path><path fill="#000000" d="m455.42816 87.952995q0.171875 -0.234375 0.375 -0.359375q0.21875 -0.125 0.453125 -0.125q0.421875 0 0.6875 0.296875q0.265625 0.28125 0.265625 0.96875l0 1.609375q0 0.6875 -0.265625 0.984375q-0.265625 0.296875 -0.6875 0.296875q-0.375 0 -0.609375 -0.21875q-0.234375 -0.21875 -0.34375 -0.796875q-0.0625 -0.390625 -0.265625 -0.609375q-0.375 -0.40625 -1.0625 -0.65625q-0.671875 -0.25 -1.359375 -0.25q-0.859375 0 -1.578125 0.375q-0.703125 0.359375 -1.25 1.203125q-0.546875 0.828125 -0.546875 1.984375l0 1.234375q0 1.375 0.984375 2.296875q1.0 0.90625 2.78125 0.90625q1.046875 0 1.78125 -0.28125q0.4375 -0.171875 0.921875 -0.65625q0.296875 -0.296875 0.453125 -0.390625q0.171875 -0.09375 0.390625 -0.09375q0.375 0 0.65625 0.296875q0.296875 0.28125 0.296875 0.671875q0 0.390625 -0.390625 0.828125q-0.5625 0.65625 -1.453125 1.03125q-1.203125 0.5 -2.65625 0.5q-1.6875 0 -3.03125 -0.703125q-1.09375 -0.546875 -1.875 -1.75q-0.765625 -1.203125 -0.765625 -2.625l0 -1.296875q0 -1.484375 0.6875 -2.765625q0.6875 -1.28125 1.90625 -1.96875q1.234375 -0.703125 2.609375 -0.703125q0.828125 0 1.546875 0.1875q0.71875 0.1875 1.34375 0.578125zm6.2424316 -1.265625l0 4.046875q0.59375 -0.34375 1.203125 -0.515625q0.609375 -0.171875 1.234375 -0.171875q0.984375 0 1.75 0.34375q0.765625 0.328125 1.265625 1.046875q0.515625 0.71875 0.515625 1.8125l0 3.5625q0.71875 0 0.953125 0.140625q0.4375 0.296875 0.4375 0.8125q0 0.421875 -0.296875 0.6875q-0.28125 0.265625 -0.96875 0.265625l-2.171875 0q-0.671875 0 -0.96875 -0.265625q-0.28125 -0.265625 -0.28125 -0.6875q0 -0.515625 0.4375 -0.8125q0.234375 -0.140625 0.953125 -0.140625l0 -3.4375q0 -0.734375 -0.34375 -1.03125q-0.4375 -0.390625 -1.28125 -0.390625q-0.640625 0 -1.125 0.25q-0.484375 0.234375 -1.3125 1.046875l0 3.5625q0.734375 0 0.953125 0.140625q0.453125 0.296875 0.453125 0.8125q0 0.421875 -0.296875 0.6875q-0.28125 0.265625 -0.96875 0.265625l-2.171875 0q-0.6875 0 -0.984375 -0.265625q-0.28125 -0.265625 -0.28125 -0.6875q0 -0.515625 0.453125 -0.8125q0.21875 -0.140625 0.953125 -0.140625l0 -8.21875l-0.328125 0q-0.6875 0 -0.984375 -0.265625q-0.296875 -0.265625 -0.296875 -0.703125q0 -0.40625 0.296875 -0.671875q0.296875 -0.265625 0.984375 -0.265625l2.21875 0zm14.867462 12.03125l0 -0.453125q-0.703125 0.390625 -1.578125 0.578125q-0.859375 0.1875 -1.5625 0.1875q-1.53125 0 -2.484375 -0.8125q-0.953125 -0.8125 -0.953125 -1.796875q0 -1.1875 1.21875 -2.203125q1.21875 -1.03125 3.375 -1.03125q0.859375 0 1.984375 0.171875l0 -0.453125q0 -0.421875 -0.359375 -0.6875q-0.359375 -0.265625 -1.390625 -0.265625q-0.84375 0 -2.203125 0.328125q-0.5 0.125 -0.765625 0.125q-0.390625 0 -0.65625 -0.265625q-0.265625 -0.28125 -0.265625 -0.71875q0 -0.234375 0.09375 -0.40625q0.09375 -0.1875 0.265625 -0.28125q0.171875 -0.109375 0.703125 -0.265625q0.703125 -0.1875 1.421875 -0.296875q0.734375 -0.125 1.328125 -0.125q1.78125 0 2.75 0.765625q0.984375 0.765625 0.984375 2.09375l0 3.90625l0.328125 0q0.6875 0 0.96875 0.265625q0.296875 0.265625 0.296875 0.6875q0 0.421875 -0.296875 0.6875q-0.28125 0.265625 -0.96875 0.265625l-2.234375 0zm0 -3.40625q-1.140625 -0.21875 -2.09375 -0.21875q-1.171875 0 -2.0 0.5625q-0.515625 0.359375 -0.515625 0.734375q0 0.265625 0.25 0.4375q0.453125 0.296875 1.265625 0.296875q0.6875 0 1.546875 -0.265625q0.875 -0.265625 1.546875 -0.734375l0 -0.8125zm7.5705566 -5.015625l0 0.640625q0.515625 -0.453125 1.140625 -0.671875q0.625 -0.21875 1.359375 -0.21875q1.6875 0 2.671875 1.046875q0.78125 0.828125 0.78125 2.1875l0 3.53125q0.59375 0 0.875 0.265625q0.296875 0.265625 0.296875 0.6875q0 0.421875 -0.296875 0.6875q-0.28125 0.265625 -0.96875 0.265625l-1.71875 0q-0.6875 0 -0.984375 -0.265625q-0.28125 -0.265625 -0.28125 -0.6875q0 -0.421875 0.28125 -0.6875q0.296875 -0.265625 0.890625 -0.265625l0 -3.59375q0 -0.609375 -0.328125 -0.90625q-0.4375 -0.359375 -1.3125 -0.359375q-0.65625 0 -1.15625 0.25q-0.5 0.25 -1.25 1.078125l0 3.53125q0.734375 0 0.9375 0.140625q0.453125 0.28125 0.453125 0.8125q0 0.421875 -0.296875 0.6875q-0.28125 0.265625 -0.96875 0.265625l-2.15625 0q-0.6875 0 -0.984375 -0.265625q-0.296875 -0.265625 -0.296875 -0.6875q0 -0.515625 0.453125 -0.8125q0.21875 -0.140625 0.953125 -0.140625l0 -4.609375q-0.609375 0 -0.890625 -0.265625q-0.28125 -0.28125 -0.28125 -0.703125q0 -0.40625 0.28125 -0.671875q0.296875 -0.265625 0.984375 -0.265625l1.8125 0zm11.195587 0l0 0.640625q0.515625 -0.453125 1.140625 -0.671875q0.625 -0.21875 1.359375 -0.21875q1.6875 0 2.671875 1.046875q0.78125 0.828125 0.78125 2.1875l0 3.53125q0.59375 0 0.875 0.265625q0.296875 0.265625 0.296875 0.6875q0 0.421875 -0.296875 0.6875q-0.28125 0.265625 -0.96875 0.265625l-1.71875 0q-0.6875 0 -0.984375 -0.265625q-0.28125 -0.265625 -0.28125 -0.6875q0 -0.421875 0.28125 -0.6875q0.296875 -0.265625 0.890625 -0.265625l0 -3.59375q0 -0.609375 -0.328125 -0.90625q-0.4375 -0.359375 -1.3125 -0.359375q-0.65625 0 -1.15625 0.25q-0.5 0.25 -1.25 1.078125l0 3.53125q0.734375 0 0.9375 0.140625q0.453125 0.28125 0.453125 0.8125q0 0.421875 -0.296875 0.6875q-0.28125 0.265625 -0.96875 0.265625l-2.15625 0q-0.6875 0 -0.984375 -0.265625q-0.296875 -0.265625 -0.296875 -0.6875q0 -0.515625 0.453125 -0.8125q0.21875 -0.140625 0.953125 -0.140625l0 -4.609375q-0.609375 0 -0.890625 -0.265625q-0.28125 -0.28125 -0.28125 -0.703125q0 -0.40625 0.28125 -0.671875q0.296875 -0.265625 0.984375 -0.265625l1.8125 0zm17.883057 5.171875l-7.7968445 0q0.296875 0.75 1.046875 1.203125q0.765625 0.453125 2.046875 0.453125q1.0625 0 2.8125 -0.453125q0.7343445 -0.1875 0.9999695 -0.1875q0.390625 0 0.640625 0.265625q0.265625 0.265625 0.265625 0.671875q0 0.375 -0.28125 0.640625q-0.375 0.34375 -1.8124695 0.65625q-1.4375 0.3125 -2.765625 0.3125q-2.28125 0 -3.65625 -1.28125q-1.359375 -1.296875 -1.359375 -3.1875q0 -2.0 1.484375 -3.25q1.484375 -1.265625 3.40625 -1.265625q1.15625 0 2.125 0.40625q0.96875 0.40625 1.453125 0.875q0.6562195 0.6875 1.0937195 1.703125q0.296875 0.703125 0.296875 1.640625l0 0.796875zm-2.0937195 -1.90625q-0.4375 -0.8125 -1.15625 -1.203125q-0.703125 -0.40625 -1.671875 -0.40625q-0.96875 0 -1.671875 0.40625q-0.703125 0.390625 -1.140625 1.203125l5.640625 0zm9.476837 -6.875l0 10.125l2.28125 0q0.6875 0 0.96875 0.265625q0.296875 0.265625 0.296875 0.6875q0 0.421875 -0.296875 0.6875q-0.28125 0.265625 -0.96875 0.265625l-6.46875 0q-0.6875 0 -0.984375 -0.265625q-0.28125 -0.265625 -0.28125 -0.6875q0 -0.421875 0.28125 -0.6875q0.296875 -0.265625 0.984375 -0.265625l2.28125 0l0 -8.21875l-1.53125 0q-0.671875 0 -0.96875 -0.265625q-0.296875 -0.265625 -0.296875 -0.703125q0 -0.40625 0.28125 -0.671875q0.296875 -0.265625 0.984375 -0.265625l3.4375 0zm22.406738 -0.28125l0 10.40625l1.921875 0q0.6875 0 0.96875 0.265625q0.296875 0.265625 0.296875 0.6875q0 0.421875 -0.296875 0.6875q-0.28125 0.265625 -0.96875 0.265625l-5.75 0q-0.6875 0 -0.984375 -0.265625q-0.28125 -0.265625 -0.28125 -0.6875q0 -0.421875 0.28125 -0.6875q0.296875 -0.265625 0.984375 -0.265625l1.921875 0l0 -7.921875l-1.6875 0.4375q-0.421875 0.109375 -0.625 0.109375q-0.359375 0 -0.625 -0.28125q-0.265625 -0.296875 -0.265625 -0.703125q0 -0.390625 0.1875 -0.609375q0.203125 -0.21875 0.828125 -0.375l4.09375 -1.0625z" fill-rule="nonzero"></path><path fill="#000000" fill-opacity="0.0" d="m249.12148 171.11383l0 30.83464" fill-rule="nonzero"></path><path stroke="#000000" stroke-width="2.0" stroke-linejoin="round" stroke-linecap="butt" d="m249.12148 171.11383l0 30.83464" fill-rule="nonzero"></path><path fill="#cfe2f3" d="m249.12073 169.8531l512.0315 0l0 32.094482l-512.0315 0z" fill-rule="nonzero"></path><path stroke="#000000" stroke-width="2.0" stroke-linejoin="round" stroke-linecap="butt" d="m249.12073 169.8531l512.0315 0l0 32.094482l-512.0315 0z" fill-rule="nonzero"></path><path fill="#000000" fill-opacity="0.0" d="m265.12146 171.11383l0 30.83464" fill-rule="nonzero"></path><path stroke="#000000" stroke-width="2.0" stroke-linejoin="round" stroke-linecap="butt" d="m265.12146 171.11383l0 30.83464" fill-rule="nonzero"></path><path fill="#000000" fill-opacity="0.0" d="m281.12146 171.11383l0 30.83464" fill-rule="nonzero"></path><path stroke="#000000" stroke-width="2.0" stroke-linejoin="round" stroke-linecap="butt" d="m281.12146 171.11383l0 30.83464" fill-rule="nonzero"></path><path fill="#000000" fill-opacity="0.0" d="m297.12146 171.11383l0 30.83464" fill-rule="nonzero"></path><path stroke="#000000" stroke-width="2.0" stroke-linejoin="round" stroke-linecap="butt" d="m297.12146 171.11383l0 30.83464" fill-rule="nonzero"></path><path fill="#000000" fill-opacity="0.0" d="m313.12146 171.11383l0 30.83464" fill-rule="nonzero"></path><path stroke="#000000" stroke-width="2.0" stroke-linejoin="round" stroke-linecap="butt" d="m313.12146 171.11383l0 30.83464" fill-rule="nonzero"></path><path fill="#000000" fill-opacity="0.0" d="m329.12146 171.11383l0 30.83464" fill-rule="nonzero"></path><path stroke="#000000" stroke-width="2.0" stroke-linejoin="round" stroke-linecap="butt" d="m329.12146 171.11383l0 30.83464" fill-rule="nonzero"></path><path fill="#000000" fill-opacity="0.0" d="m345.12146 171.11383l0 30.83464" fill-rule="nonzero"></path><path stroke="#000000" stroke-width="2.0" stroke-linejoin="round" stroke-linecap="butt" d="m345.12146 171.11383l0 30.83464" fill-rule="nonzero"></path><path fill="#000000" fill-opacity="0.0" d="m361.12146 171.11383l0 30.83464" fill-rule="nonzero"></path><path stroke="#000000" stroke-width="2.0" stroke-linejoin="round" stroke-linecap="butt" d="m361.12146 171.11383l0 30.83464" fill-rule="nonzero"></path><path fill="#000000" fill-opacity="0.0" d="m377.12146 171.11383l0 30.83464" fill-rule="nonzero"></path><path stroke="#000000" stroke-width="2.0" stroke-linejoin="round" stroke-linecap="butt" d="m377.12146 171.11383l0 30.83464" fill-rule="nonzero"></path><path fill="#000000" fill-opacity="0.0" d="m393.12146 171.11383l0 30.83464" fill-rule="nonzero"></path><path stroke="#000000" stroke-width="2.0" stroke-linejoin="round" stroke-linecap="butt" d="m393.12146 171.11383l0 30.83464" fill-rule="nonzero"></path><path fill="#000000" fill-opacity="0.0" d="m409.12146 171.11383l0 30.83464" fill-rule="nonzero"></path><path stroke="#000000" stroke-width="2.0" stroke-linejoin="round" stroke-linecap="butt" d="m409.12146 171.11383l0 30.83464" fill-rule="nonzero"></path><path fill="#000000" fill-opacity="0.0" d="m425.12146 171.11383l0 30.83464" fill-rule="nonzero"></path><path stroke="#000000" stroke-width="2.0" stroke-linejoin="round" stroke-linecap="butt" d="m425.12146 171.11383l0 30.83464" fill-rule="nonzero"></path><path fill="#000000" fill-opacity="0.0" d="m441.12146 171.11383l0 30.83464" fill-rule="nonzero"></path><path stroke="#000000" stroke-width="2.0" stroke-linejoin="round" stroke-linecap="butt" d="m441.12146 171.11383l0 30.83464" fill-rule="nonzero"></path><path fill="#000000" fill-opacity="0.0" d="m457.12146 171.11383l0 30.83464" fill-rule="nonzero"></path><path stroke="#000000" stroke-width="2.0" stroke-linejoin="round" stroke-linecap="butt" d="m457.12146 171.11383l0 30.83464" fill-rule="nonzero"></path><path fill="#000000" fill-opacity="0.0" d="m473.1215 171.11383l0 30.83464" fill-rule="nonzero"></path><path stroke="#000000" stroke-width="2.0" stroke-linejoin="round" stroke-linecap="butt" d="m473.1215 171.11383l0 30.83464" fill-rule="nonzero"></path><path fill="#000000" fill-opacity="0.0" d="m489.1215 171.11383l0 30.83464" fill-rule="nonzero"></path><path stroke="#000000" stroke-width="2.0" stroke-linejoin="round" stroke-linecap="butt" d="m489.1215 171.11383l0 30.83464" fill-rule="nonzero"></path><path fill="#000000" fill-opacity="0.0" d="m505.1215 171.11383l0 30.83464" fill-rule="nonzero"></path><path stroke="#000000" stroke-width="2.0" stroke-linejoin="round" stroke-linecap="butt" d="m505.1215 171.11383l0 30.83464" fill-rule="nonzero"></path><path fill="#000000" fill-opacity="0.0" d="m521.12146 171.11383l0 30.83464" fill-rule="nonzero"></path><path stroke="#000000" stroke-width="2.0" stroke-linejoin="round" stroke-linecap="butt" d="m521.12146 171.11383l0 30.83464" fill-rule="nonzero"></path><path fill="#000000" fill-opacity="0.0" d="m537.12146 171.11383l0 30.83464" fill-rule="nonzero"></path><path stroke="#000000" stroke-width="2.0" stroke-linejoin="round" stroke-linecap="butt" d="m537.12146 171.11383l0 30.83464" fill-rule="nonzero"></path><path fill="#000000" fill-opacity="0.0" d="m553.12146 171.11383l0 30.83464" fill-rule="nonzero"></path><path stroke="#000000" stroke-width="2.0" stroke-linejoin="round" stroke-linecap="butt" d="m553.12146 171.11383l0 30.83464" fill-rule="nonzero"></path><path fill="#000000" fill-opacity="0.0" d="m569.12146 171.11383l0 30.83464" fill-rule="nonzero"></path><path stroke="#000000" stroke-width="2.0" stroke-linejoin="round" stroke-linecap="butt" d="m569.12146 171.11383l0 30.83464" fill-rule="nonzero"></path><path fill="#000000" fill-opacity="0.0" d="m585.12146 171.11383l0 30.83464" fill-rule="nonzero"></path><path stroke="#000000" stroke-width="2.0" stroke-linejoin="round" stroke-linecap="butt" d="m585.12146 171.11383l0 30.83464" fill-rule="nonzero"></path><path fill="#000000" fill-opacity="0.0" d="m601.12146 171.11383l0 30.83464" fill-rule="nonzero"></path><path stroke="#000000" stroke-width="2.0" stroke-linejoin="round" stroke-linecap="butt" d="m601.12146 171.11383l0 30.83464" fill-rule="nonzero"></path><path fill="#000000" fill-opacity="0.0" d="m617.12146 171.11383l0 30.83464" fill-rule="nonzero"></path><path stroke="#000000" stroke-width="2.0" stroke-linejoin="round" stroke-linecap="butt" d="m617.12146 171.11383l0 30.83464" fill-rule="nonzero"></path><path fill="#000000" fill-opacity="0.0" d="m633.12146 171.11383l0 30.83464" fill-rule="nonzero"></path><path stroke="#000000" stroke-width="2.0" stroke-linejoin="round" stroke-linecap="butt" d="m633.12146 171.11383l0 30.83464" fill-rule="nonzero"></path><path fill="#000000" fill-opacity="0.0" d="m649.12146 171.11383l0 30.83464" fill-rule="nonzero"></path><path stroke="#000000" stroke-width="2.0" stroke-linejoin="round" stroke-linecap="butt" d="m649.12146 171.11383l0 30.83464" fill-rule="nonzero"></path><path fill="#000000" fill-opacity="0.0" d="m665.12146 171.11383l0 30.83464" fill-rule="nonzero"></path><path stroke="#000000" stroke-width="2.0" stroke-linejoin="round" stroke-linecap="butt" d="m665.12146 171.11383l0 30.83464" fill-rule="nonzero"></path><path fill="#000000" fill-opacity="0.0" d="m681.12146 171.11383l0 30.83464" fill-rule="nonzero"></path><path stroke="#000000" stroke-width="2.0" stroke-linejoin="round" stroke-linecap="butt" d="m681.12146 171.11383l0 30.83464" fill-rule="nonzero"></path><path fill="#000000" fill-opacity="0.0" d="m697.12146 171.11383l0 30.83464" fill-rule="nonzero"></path><path stroke="#000000" stroke-width="2.0" stroke-linejoin="round" stroke-linecap="butt" d="m697.12146 171.11383l0 30.83464" fill-rule="nonzero"></path><path fill="#000000" fill-opacity="0.0" d="m713.12146 171.11383l0 30.83464" fill-rule="nonzero"></path><path stroke="#000000" stroke-width="2.0" stroke-linejoin="round" stroke-linecap="butt" d="m713.12146 171.11383l0 30.83464" fill-rule="nonzero"></path><path fill="#000000" fill-opacity="0.0" d="m729.12146 171.11383l0 30.83464" fill-rule="nonzero"></path><path stroke="#000000" stroke-width="2.0" stroke-linejoin="round" stroke-linecap="butt" d="m729.12146 171.11383l0 30.83464" fill-rule="nonzero"></path><path fill="#000000" fill-opacity="0.0" d="m745.12146 171.11383l0 30.83464" fill-rule="nonzero"></path><path stroke="#000000" stroke-width="2.0" stroke-linejoin="round" stroke-linecap="butt" d="m745.12146 171.11383l0 30.83464" fill-rule="nonzero"></path><path fill="#000000" fill-opacity="0.0" d="m761.12146 171.11383l0 30.83464" fill-rule="nonzero"></path><path stroke="#000000" stroke-width="2.0" stroke-linejoin="round" stroke-linecap="butt" d="m761.12146 171.11383l0 30.83464" fill-rule="nonzero"></path><path fill="#ffffff" d="m432.0196 174.46553l130.20471 0l0 21.606293l-130.20471 0z" fill-rule="nonzero"></path><path fill="#000000" d="m455.42935 181.42305q0.171875 -0.234375 0.375 -0.359375q0.21875 -0.125 0.453125 -0.125q0.421875 0 0.6875 0.296875q0.265625 0.28125 0.265625 0.96875l0 1.609375q0 0.6875 -0.265625 0.984375q-0.265625 0.296875 -0.6875 0.296875q-0.375 0 -0.609375 -0.21875q-0.234375 -0.21875 -0.34375 -0.796875q-0.0625 -0.390625 -0.265625 -0.609375q-0.375 -0.40625 -1.0625 -0.65625q-0.671875 -0.25 -1.359375 -0.25q-0.859375 0 -1.578125 0.375q-0.703125 0.359375 -1.25 1.203125q-0.546875 0.828125 -0.546875 1.984375l0 1.234375q0 1.375 0.984375 2.296875q1.0 0.90625 2.78125 0.90625q1.046875 0 1.78125 -0.28125q0.4375 -0.171875 0.921875 -0.65625q0.296875 -0.296875 0.453125 -0.390625q0.171875 -0.09375 0.390625 -0.09375q0.375 0 0.65625 0.296875q0.296875 0.28125 0.296875 0.671875q0 0.390625 -0.390625 0.828125q-0.5625 0.65625 -1.453125 1.03125q-1.203125 0.5 -2.65625 0.5q-1.6875 0 -3.03125 -0.703125q-1.09375 -0.546875 -1.875 -1.75q-0.765625 -1.203125 -0.765625 -2.625l0 -1.296875q0 -1.484375 0.6875 -2.765625q0.6875 -1.28125 1.90625 -1.96875q1.234375 -0.703125 2.609375 -0.703125q0.828125 0 1.546875 0.1875q0.71875 0.1875 1.34375 0.578125zm6.242462 -1.265625l0 4.046875q0.59375 -0.34375 1.203125 -0.515625q0.609375 -0.171875 1.234375 -0.171875q0.984375 0 1.75 0.34375q0.765625 0.328125 1.265625 1.046875q0.515625 0.71875 0.515625 1.8125l0 3.5625q0.71875 0 0.953125 0.140625q0.4375 0.296875 0.4375 0.8125q0 0.421875 -0.296875 0.6875q-0.28125 0.265625 -0.96875 0.265625l-2.171875 0q-0.671875 0 -0.96875 -0.265625q-0.28125 -0.265625 -0.28125 -0.6875q0 -0.515625 0.4375 -0.8125q0.234375 -0.140625 0.953125 -0.140625l0 -3.4375q0 -0.734375 -0.34375 -1.03125q-0.4375 -0.390625 -1.28125 -0.390625q-0.640625 0 -1.125 0.25q-0.484375 0.234375 -1.3125 1.046875l0 3.5625q0.734375 0 0.953125 0.140625q0.453125 0.296875 0.453125 0.8125q0 0.421875 -0.296875 0.6875q-0.28125 0.265625 -0.96875 0.265625l-2.171875 0q-0.6875 0 -0.984375 -0.265625q-0.28125 -0.265625 -0.28125 -0.6875q0 -0.515625 0.453125 -0.8125q0.21875 -0.140625 0.953125 -0.140625l0 -8.21875l-0.328125 0q-0.6875 0 -0.984375 -0.265625q-0.296875 -0.265625 -0.296875 -0.703125q0 -0.40625 0.296875 -0.671875q0.296875 -0.265625 0.984375 -0.265625l2.21875 0zm14.867432 12.03125l0 -0.453125q-0.703125 0.390625 -1.578125 0.578125q-0.859375 0.1875 -1.5625 0.1875q-1.53125 0 -2.484375 -0.8125q-0.953125 -0.8125 -0.953125 -1.796875q0 -1.1875 1.21875 -2.203125q1.21875 -1.03125 3.375 -1.03125q0.859375 0 1.984375 0.171875l0 -0.453125q0 -0.421875 -0.359375 -0.6875q-0.359375 -0.265625 -1.390625 -0.265625q-0.84375 0 -2.203125 0.328125q-0.5 0.125 -0.765625 0.125q-0.390625 0 -0.65625 -0.265625q-0.265625 -0.28125 -0.265625 -0.71875q0 -0.234375 0.09375 -0.40625q0.09375 -0.1875 0.265625 -0.28125q0.171875 -0.109375 0.703125 -0.265625q0.703125 -0.1875 1.421875 -0.296875q0.734375 -0.125 1.328125 -0.125q1.78125 0 2.75 0.765625q0.984375 0.765625 0.984375 2.09375l0 3.90625l0.328125 0q0.6875 0 0.96875 0.265625q0.296875 0.265625 0.296875 0.6875q0 0.421875 -0.296875 0.6875q-0.28125 0.265625 -0.96875 0.265625l-2.234375 0zm0 -3.40625q-1.140625 -0.21875 -2.09375 -0.21875q-1.171875 0 -2.0 0.5625q-0.515625 0.359375 -0.515625 0.734375q0 0.265625 0.25 0.4375q0.453125 0.296875 1.265625 0.296875q0.6875 0 1.546875 -0.265625q0.875 -0.265625 1.546875 -0.734375l0 -0.8125zm7.570587 -5.015625l0 0.640625q0.515625 -0.453125 1.140625 -0.671875q0.625 -0.21875 1.359375 -0.21875q1.6875 0 2.671875 1.046875q0.78125 0.828125 0.78125 2.1875l0 3.53125q0.59375 0 0.875 0.265625q0.296875 0.265625 0.296875 0.6875q0 0.421875 -0.296875 0.6875q-0.28125 0.265625 -0.96875 0.265625l-1.71875 0q-0.6875 0 -0.984375 -0.265625q-0.28125 -0.265625 -0.28125 -0.6875q0 -0.421875 0.28125 -0.6875q0.296875 -0.265625 0.890625 -0.265625l0 -3.59375q0 -0.609375 -0.328125 -0.90625q-0.4375 -0.359375 -1.3125 -0.359375q-0.65625 0 -1.15625 0.25q-0.5 0.25 -1.25 1.078125l0 3.53125q0.734375 0 0.9375 0.140625q0.453125 0.28125 0.453125 0.8125q0 0.421875 -0.296875 0.6875q-0.28125 0.265625 -0.96875 0.265625l-2.15625 0q-0.6875 0 -0.984375 -0.265625q-0.296875 -0.265625 -0.296875 -0.6875q0 -0.515625 0.453125 -0.8125q0.21875 -0.140625 0.953125 -0.140625l0 -4.609375q-0.609375 0 -0.890625 -0.265625q-0.28125 -0.28125 -0.28125 -0.703125q0 -0.40625 0.28125 -0.671875q0.296875 -0.265625 0.984375 -0.265625l1.8125 0zm11.195557 0l0 0.640625q0.515625 -0.453125 1.1406555 -0.671875q0.625 -0.21875 1.359375 -0.21875q1.6875 0 2.671875 1.046875q0.78125 0.828125 0.78125 2.1875l0 3.53125q0.59375 0 0.875 0.265625q0.296875 0.265625 0.296875 0.6875q0 0.421875 -0.296875 0.6875q-0.28125 0.265625 -0.96875 0.265625l-1.71875 0q-0.6875 0 -0.984375 -0.265625q-0.28125 -0.265625 -0.28125 -0.6875q0 -0.421875 0.28125 -0.6875q0.296875 -0.265625 0.890625 -0.265625l0 -3.59375q0 -0.609375 -0.328125 -0.90625q-0.4375 -0.359375 -1.3125 -0.359375q-0.65625 0 -1.15625 0.25q-0.5 0.25 -1.2500305 1.078125l0 3.53125q0.7344055 0 0.9375305 0.140625q0.453125 0.28125 0.453125 0.8125q0 0.421875 -0.296875 0.6875q-0.28125 0.265625 -0.9687805 0.265625l-2.15625 0q-0.6875 0 -0.984375 -0.265625q-0.296875 -0.265625 -0.296875 -0.6875q0 -0.515625 0.453125 -0.8125q0.21875 -0.140625 0.953125 -0.140625l0 -4.609375q-0.609375 0 -0.890625 -0.265625q-0.28125 -0.28125 -0.28125 -0.703125q0 -0.40625 0.28125 -0.671875q0.296875 -0.265625 0.984375 -0.265625l1.8125 0zm17.883087 5.171875l-7.796875 0q0.296875 0.75 1.046875 1.203125q0.765625 0.453125 2.046875 0.453125q1.0625 0 2.8125 -0.453125q0.734375 -0.1875 1.0 -0.1875q0.390625 0 0.640625 0.265625q0.265625 0.265625 0.265625 0.671875q0 0.375 -0.28125 0.640625q-0.375 0.34375 -1.8125 0.65625q-1.4375 0.3125 -2.765625 0.3125q-2.28125 0 -3.65625 -1.28125q-1.359375 -1.296875 -1.359375 -3.1875q0 -2.0 1.484375 -3.25q1.484375 -1.265625 3.40625 -1.265625q1.15625 0 2.125 0.40625q0.96875 0.40625 1.453125 0.875q0.65625 0.6875 1.09375 1.703125q0.296875 0.703125 0.296875 1.640625l0 0.796875zm-2.09375 -1.90625q-0.4375 -0.8125 -1.15625 -1.203125q-0.703125 -0.40625 -1.671875 -0.40625q-0.96875 0 -1.671875 0.40625q-0.703125 0.390625 -1.140625 1.203125l5.640625 0zm9.476807 -6.875l0 10.125l2.28125 0q0.6875 0 0.96875 0.265625q0.296875 0.265625 0.296875 0.6875q0 0.421875 -0.296875 0.6875q-0.28125 0.265625 -0.96875 0.265625l-6.46875 0q-0.6875 0 -0.984375 -0.265625q-0.28125 -0.265625 -0.28125 -0.6875q0 -0.421875 0.28125 -0.6875q0.296875 -0.265625 0.984375 -0.265625l2.28125 0l0 -8.21875l-1.53125 0q-0.671875 0 -0.96875 -0.265625q-0.296875 -0.265625 -0.296875 -0.703125q0 -0.40625 0.28125 -0.671875q0.296875 -0.265625 0.984375 -0.265625l3.4375 0zm19.06305 4.375l0 5.75l0.6875 0q0.671875 0 0.96875 0.265625q0.296875 0.265625 0.296875 0.6875q0 0.421875 -0.296875 0.6875q-0.296875 0.265625 -0.96875 0.265625l-2.5 0q-0.6875 0 -0.984375 -0.265625q-0.296875 -0.265625 -0.296875 -0.6875q0 -0.40625 0.28125 -0.671875q0.296875 -0.28125 0.90625 -0.28125l0 -7.4375l-0.296875 0q-0.6875 0 -0.984375 -0.265625q-0.296875 -0.265625 -0.296875 -0.6875q0 -0.421875 0.296875 -0.6875q0.296875 -0.265625 0.984375 -0.265625l2.203125 0l4.859375 7.625l0 -5.71875l-0.6875 0q-0.6875 0 -0.984375 -0.265625q-0.296875 -0.265625 -0.296875 -0.6875q0 -0.421875 0.296875 -0.6875q0.296875 -0.265625 0.984375 -0.265625l2.484375 0q0.6875 0 0.984375 0.265625q0.296875 0.265625 0.296875 0.6875q0 0.421875 -0.296875 0.6875q-0.28125 0.265625 -0.875 0.265625l0 9.34375l-1.890625 0l-4.875 -7.65625z" fill-rule="nonzero"></path><path fill="#ffffff" d="m440.01837 130.22835l130.20471 0l0 21.606293l-130.20471 0z" fill-rule="nonzero"></path><path fill="#000000" d="m495.48364 146.99837q0 0.53125 -0.390625 0.90625q-0.375 0.359375 -1.046875 0.359375q-0.65625 0 -1.046875 -0.359375q-0.375 -0.375 -0.375 -0.90625q0 -0.546875 0.375 -0.90625q0.390625 -0.359375 1.046875 -0.359375q0.671875 0 1.046875 0.359375q0.390625 0.359375 0.390625 0.90625zm11.195557 0q0 0.53125 -0.390625 0.90625q-0.375 0.359375 -1.046875 0.359375q-0.65625 0 -1.046875 -0.359375q-0.375 -0.375 -0.375 -0.90625q0 -0.546875 0.375 -0.90625q0.390625 -0.359375 1.046875 -0.359375q0.671875 0 1.046875 0.359375q0.390625 0.359375 0.390625 0.90625zm11.195557 0q0 0.53125 -0.390625 0.90625q-0.375 0.359375 -1.046875 0.359375q-0.65625 0 -1.046875 -0.359375q-0.375 -0.375 -0.375 -0.90625q0 -0.546875 0.375 -0.90625q0.390625 -0.359375 1.046875 -0.359375q0.671875 0 1.046875 0.359375q0.390625 0.359375 0.390625 0.90625z" fill-rule="nonzero"></path><path fill="#cfe2f3" d="m179.29396 21.614174l29.826782 0l0 188.40945l-29.826782 0z" fill-rule="nonzero"></path><path stroke="#000000" stroke-width="2.0" stroke-linejoin="round" stroke-linecap="butt" d="m179.29396 21.614174l29.826782 0l0 188.40945l-29.826782 0z" fill-rule="nonzero"></path><path fill="#000000" fill-opacity="0.0" d="m209.61417 161.94513l-29.574799 0" fill-rule="nonzero"></path><path stroke="#000000" stroke-width="2.0" stroke-linejoin="round" stroke-linecap="butt" d="m209.61417 161.94513l-29.574799 0" fill-rule="nonzero"></path><path fill="#000000" fill-opacity="0.0" d="m209.61417 68.41088l-29.574799 0" fill-rule="nonzero"></path><path stroke="#000000" stroke-width="2.0" stroke-linejoin="round" stroke-linecap="butt" d="m209.61417 68.41088l-29.574799 0" fill-rule="nonzero"></path><path fill="#000000" fill-opacity="0.0" d="m209.61417 115.17801l-29.574799 0" fill-rule="nonzero"></path><path stroke="#000000" stroke-width="2.0" stroke-linejoin="round" stroke-linecap="butt" d="m209.61417 115.17801l-29.574799 0" fill-rule="nonzero"></path><path fill="#000000" fill-opacity="0.0" d="m210.26509 45.66345l38.204727 0" fill-rule="nonzero"></path><path stroke="#000000" stroke-width="2.0" stroke-linejoin="round" stroke-linecap="butt" d="m210.26509 45.66345l26.204727 0" fill-rule="evenodd"></path><path fill="#000000" stroke="#000000" stroke-width="2.0" stroke-linecap="butt" d="m236.46982 48.96691l9.076187 -3.303463l-9.076187 -3.3034668z" fill-rule="evenodd"></path><path fill="#000000" fill-opacity="0.0" d="m210.26509 92.43057l38.204727 0" fill-rule="nonzero"></path><path stroke="#000000" stroke-width="2.0" stroke-linejoin="round" stroke-linecap="butt" d="m210.26509 92.43057l26.204727 0" fill-rule="evenodd"></path><path fill="#000000" stroke="#000000" stroke-width="2.0" stroke-linecap="butt" d="m236.46982 95.73403l9.076187 -3.3034592l-9.076187 -3.3034668z" fill-rule="evenodd"></path><path fill="#000000" fill-opacity="0.0" d="m210.26509 139.1977l38.204727 0" fill-rule="nonzero"></path><path stroke="#000000" stroke-width="2.0" stroke-linejoin="round" stroke-linecap="butt" d="m210.26509 139.1977l26.204727 0" fill-rule="evenodd"></path><path fill="#000000" stroke="#000000" stroke-width="2.0" stroke-linecap="butt" d="m236.46982 142.50116l9.076187 -3.3034668l-9.076187 -3.3034668z" fill-rule="evenodd"></path><path fill="#000000" fill-opacity="0.0" d="m210.26509 185.36208l38.204727 0" fill-rule="nonzero"></path><path stroke="#000000" stroke-width="2.0" stroke-linejoin="round" stroke-linecap="butt" d="m210.26509 185.36208l26.204727 0" fill-rule="evenodd"></path><path fill="#000000" stroke="#000000" stroke-width="2.0" stroke-linecap="butt" d="m236.46982 188.66554l9.076187 -3.3034668l-9.076187 -3.3034515z" fill-rule="evenodd"></path><path fill="#000000" fill-opacity="0.0" d="m573.2782 218.21785l187.87402 0l0 21.606293l-187.87402 0z" fill-rule="nonzero"></path><path fill="#000000" d="m655.86084 227.90974l-0.296875 1.421875q0.890625 -0.875 1.78125 -1.28125q0.890625 -0.421875 1.953125 -0.421875q1.5625 0 2.46875 0.90625q0.921875 0.890625 0.921875 2.296875q0 1.890625 -1.546875 3.40625q-1.546875 1.515625 -3.5625 1.515625q-2.078125 0 -3.015625 -1.703125l-1.0 4.6875l1.875 0q0.21875 0 0.28125 0.03125q0.078125 0.03125 0.125 0.109375q0.0625 0.078125 0.0625 0.171875q0 0.1875 -0.171875 0.328125q-0.15625 0.140625 -0.453125 0.140625l-3.71875 0q-0.25 0 -0.34375 -0.078125q-0.09375 -0.078125 -0.09375 -0.21875q0 -0.203125 0.15625 -0.34375q0.140625 -0.140625 0.453125 -0.140625l1.046875 0l2.140625 -10.046875l-1.046875 0q-0.265625 0 -0.359375 -0.078125q-0.09375 -0.078125 -0.09375 -0.234375q0 -0.1875 0.15625 -0.328125q0.15625 -0.140625 0.453125 -0.140625l1.828125 0zm1.859375 7.046875q1.65625 0 2.90625 -1.21875q1.265625 -1.21875 1.265625 -2.765625q0 -1.078125 -0.765625 -1.8125q-0.765625 -0.75 -1.953125 -0.75q-1.671875 0 -2.9375 1.21875q-1.25 1.21875 -1.25 2.71875q0 1.109375 0.765625 1.859375q0.765625 0.75 1.96875 0.75zm11.336182 -7.046875l-0.40625 1.96875q1.84375 -1.390625 2.671875 -1.78125q0.828125 -0.390625 1.46875 -0.390625q0.625 0 1.125 0.4375q0.515625 0.421875 0.515625 0.65625q0 0.203125 -0.15625 0.359375q-0.140625 0.140625 -0.34375 0.140625q-0.09375 0 -0.15625 -0.03125q-0.046875 -0.03125 -0.1875 -0.21875q-0.25 -0.3125 -0.46875 -0.4375q-0.21875 -0.125 -0.453125 -0.125q-0.515625 0 -1.328125 0.40625q-0.796875 0.40625 -2.90625 2.0l-0.90625 4.265625l3.453125 0q0.265625 0 0.359375 0.078125q0.09375 0.078125 0.09375 0.234375q0 0.1875 -0.15625 0.328125q-0.15625 0.140625 -0.46875 0.140625l-6.109375 0q-0.265625 0 -0.359375 -0.078125q-0.09375 -0.078125 -0.09375 -0.21875q0 -0.1875 0.140625 -0.3125q0.15625 -0.140625 0.46875 -0.140625l1.875 0l1.390625 -6.5l-1.4375 0q-0.265625 0 -0.359375 -0.078125q-0.09375 -0.078125 -0.09375 -0.21875q0 -0.203125 0.15625 -0.34375q0.15625 -0.140625 0.46875 -0.140625l2.203125 0zm10.336182 8.34375q-1.53125 0 -2.515625 -0.96875q-0.984375 -0.984375 -0.984375 -2.46875q0 -1.21875 0.734375 -2.46875q0.75 -1.265625 2.03125 -1.984375q1.296875 -0.734375 2.625 -0.734375q1.53125 0 2.515625 0.96875q0.984375 0.953125 0.984375 2.40625q0 1.25 -0.71875 2.5q-0.71875 1.234375 -2.03125 2.0q-1.296875 0.75 -2.640625 0.75zm0.171875 -0.78125q1.09375 0 2.15625 -0.609375q1.078125 -0.625 1.671875 -1.640625q0.59375 -1.03125 0.59375 -2.0625q0 -1.171875 -0.8125 -1.953125q-0.8125 -0.796875 -2.0625 -0.796875q-0.90625 0 -1.6875 0.359375q-0.765625 0.359375 -1.359375 0.921875q-0.59375 0.5625 -0.984375 1.34375q-0.390625 0.78125 -0.390625 1.625q0 1.21875 0.796875 2.015625q0.8125 0.796875 2.078125 0.796875zm15.914368 -6.78125q0.109375 -0.53125 0.203125 -0.625q0.15625 -0.15625 0.359375 -0.15625q0.125 0 0.203125 0.09375q0.09375 0.078125 0.09375 0.1875q0 0.09375 -0.015625 0.25l-0.390625 1.75q-0.0625 0.296875 -0.203125 0.421875q-0.125 0.109375 -0.296875 0.109375q-0.140625 0 -0.234375 -0.078125q-0.078125 -0.078125 -0.078125 -0.203125q0 -0.046875 0.015625 -0.171875q0.015625 -0.078125 0.015625 -0.15625q0 -0.625 -0.59375 -1.078125q-0.78125 -0.625 -2.078125 -0.625q-1.125 0 -2.125 0.5625q-1.0 0.546875 -1.625 1.640625q-0.625 1.09375 -0.625 2.171875q0 1.203125 0.765625 1.953125q0.78125 0.734375 2.140625 0.734375q0.890625 0 1.890625 -0.328125q1.015625 -0.328125 1.953125 -1.09375q0.234375 -0.171875 0.390625 -0.171875q0.140625 0 0.21875 0.078125q0.078125 0.078125 0.078125 0.203125q0 0.1875 -0.1875 0.375q-0.65625 0.6875 -1.96875 1.203125q-1.3125 0.515625 -2.640625 0.515625q-1.578125 0 -2.515625 -0.90625q-0.9375 -0.90625 -0.9375 -2.359375q0 -1.09375 0.46875 -2.09375q0.46875 -1.015625 1.1875 -1.703125q0.71875 -0.703125 1.65625 -1.125q0.9375 -0.4375 2.078125 -0.4375q0.90625 0 1.59375 0.265625q0.703125 0.265625 1.203125 0.796875zm11.445557 3.421875l-7.953125 0q-0.015625 0.28125 -0.015625 0.4375q0 1.265625 0.859375 2.09375q0.859375 0.828125 2.328125 0.828125q0.875 0 1.875 -0.28125q1.015625 -0.296875 1.734375 -0.765625q0.21875 -0.140625 0.34375 -0.140625q0.125 0 0.203125 0.09375q0.09375 0.078125 0.09375 0.21875q0 0.171875 -0.15625 0.3125q-0.421875 0.453125 -1.703125 0.90625q-1.28125 0.4375 -2.59375 0.4375q-1.71875 0 -2.75 -1.015625q-1.03125 -1.015625 -1.03125 -2.578125q0 -1.03125 0.4375 -1.9375q0.453125 -0.90625 1.171875 -1.5625q0.734375 -0.671875 1.6875 -1.09375q0.953125 -0.4375 2.078125 -0.4375q1.59375 0 2.5625 0.9375q0.96875 0.9375 0.96875 2.390625q0 0.484375 -0.140625 1.15625zm-0.640625 -0.796875q0.046875 -1.28125 -0.75 -2.09375q-0.828125 -0.8125 -2.203125 -0.8125q-1.328125 0 -2.5 0.796875q-1.15625 0.78125 -1.6875 2.109375l7.140625 0zm10.961182 -2.90625q0.0625 -0.265625 0.203125 -0.375q0.140625 -0.125 0.296875 -0.125q0.140625 0 0.234375 0.09375q0.09375 0.078125 0.09375 0.1875q0 0.09375 -0.046875 0.25l-0.28125 1.328125q-0.0625 0.28125 -0.203125 0.40625q-0.125 0.109375 -0.296875 0.109375q-0.140625 0 -0.234375 -0.078125q-0.078125 -0.078125 -0.078125 -0.1875l0.015625 -0.171875q0 -0.0625 0 -0.125q0 -0.5 -0.4375 -0.828125q-0.65625 -0.484375 -1.84375 -0.484375q-1.4375 0 -2.28125 0.625q-0.625 0.453125 -0.625 0.953125q0 0.5 0.546875 0.828125q0.390625 0.21875 1.671875 0.359375q1.296875 0.140625 1.859375 0.328125q0.78125 0.25 1.15625 0.734375q0.390625 0.46875 0.390625 1.0625q0 0.6875 -0.5 1.375q-0.5 0.6875 -1.53125 1.140625q-1.03125 0.4375 -2.328125 0.4375q-0.921875 0 -1.625 -0.25q-0.703125 -0.234375 -1.1875 -0.6875q-0.078125 0.375 -0.1875 0.484375q-0.15625 0.140625 -0.34375 0.140625q-0.125 0 -0.21875 -0.078125q-0.09375 -0.09375 -0.09375 -0.203125q0 -0.09375 0.03125 -0.234375l0.34375 -1.609375q0.0625 -0.28125 0.1875 -0.390625q0.140625 -0.125 0.328125 -0.125q0.125 0 0.203125 0.09375q0.09375 0.078125 0.09375 0.203125q0 0.078125 -0.03125 0.21875q-0.015625 0.125 -0.015625 0.1875q0 0.53125 0.546875 0.9375q0.71875 0.53125 2.109375 0.53125q1.65625 0 2.53125 -0.65625q0.875 -0.671875 0.875 -1.3125q0 -0.359375 -0.265625 -0.6875q-0.25 -0.34375 -0.765625 -0.546875q-0.515625 -0.203125 -1.703125 -0.328125q-1.1875 -0.125 -1.734375 -0.3125q-0.53125 -0.1875 -0.84375 -0.578125q-0.296875 -0.390625 -0.296875 -0.890625q0 -0.578125 0.390625 -1.140625q0.40625 -0.5625 1.328125 -0.96875q0.9375 -0.421875 2.09375 -0.421875q0.8125 0 1.421875 0.203125q0.625 0.1875 1.046875 0.578125zm11.195557 0q0.0625 -0.265625 0.203125 -0.375q0.140625 -0.125 0.296875 -0.125q0.140625 0 0.234375 0.09375q0.09375 0.078125 0.09375 0.1875q0 0.09375 -0.046875 0.25l-0.28125 1.328125q-0.0625 0.28125 -0.203125 0.40625q-0.125 0.109375 -0.296875 0.109375q-0.140625 0 -0.234375 -0.078125q-0.078125 -0.078125 -0.078125 -0.1875l0.015625 -0.171875q0 -0.0625 0 -0.125q0 -0.5 -0.4375 -0.828125q-0.65625 -0.484375 -1.84375 -0.484375q-1.4375 0 -2.28125 0.625q-0.625 0.453125 -0.625 0.953125q0 0.5 0.546875 0.828125q0.390625 0.21875 1.671875 0.359375q1.296875 0.140625 1.859375 0.328125q0.78125 0.25 1.15625 0.734375q0.390625 0.46875 0.390625 1.0625q0 0.6875 -0.5 1.375q-0.5 0.6875 -1.53125 1.140625q-1.03125 0.4375 -2.328125 0.4375q-0.921875 0 -1.625 -0.25q-0.703125 -0.234375 -1.1875 -0.6875q-0.078125 0.375 -0.1875 0.484375q-0.15625 0.140625 -0.34375 0.140625q-0.125 0 -0.21875 -0.078125q-0.09375 -0.09375 -0.09375 -0.203125q0 -0.09375 0.03125 -0.234375l0.34375 -1.609375q0.0625 -0.28125 0.1875 -0.390625q0.140625 -0.125 0.328125 -0.125q0.125 0 0.203125 0.09375q0.09375 0.078125 0.09375 0.203125q0 0.078125 -0.03125 0.21875q-0.015625 0.125 -0.015625 0.1875q0 0.53125 0.546875 0.9375q0.71875 0.53125 2.109375 0.53125q1.65625 0 2.53125 -0.65625q0.875 -0.671875 0.875 -1.3125q0 -0.359375 -0.265625 -0.6875q-0.25 -0.34375 -0.765625 -0.546875q-0.515625 -0.203125 -1.703125 -0.328125q-1.1875 -0.125 -1.734375 -0.3125q-0.53125 -0.1875 -0.84375 -0.578125q-0.296875 -0.390625 -0.296875 -0.890625q0 -0.578125 0.390625 -1.140625q0.40625 -0.5625 1.328125 -0.96875q0.9375 -0.421875 2.09375 -0.421875q0.8125 0 1.421875 0.203125q0.625 0.1875 1.046875 0.578125zm12.148743 -4.109375q0.140625 0 0.234375 0.09375q0.09375 0.078125 0.09375 0.203125q0 0.140625 -0.109375 0.28125q-1.90625 2.484375 -2.71875 4.5625q-0.796875 2.078125 -0.796875 4.15625q0 1.859375 0.75 4.09375q0.046875 0.15625 0.046875 0.203125q0 0.171875 -0.15625 0.3125q-0.140625 0.140625 -0.328125 0.140625q-0.125 0 -0.203125 -0.09375q-0.296875 -0.296875 -0.78125 -1.9375q-0.46875 -1.640625 -0.46875 -2.859375q0 -1.65625 0.453125 -3.078125q0.46875 -1.4375 1.171875 -2.59375q0.703125 -1.171875 1.640625 -2.359375q0.703125 -0.890625 0.921875 -1.046875q0.125 -0.078125 0.25 -0.078125zm3.0393066 14.046875q-0.140625 0 -0.234375 -0.09375q-0.09375 -0.078125 -0.09375 -0.203125q0 -0.140625 0.109375 -0.296875q1.890625 -2.453125 2.703125 -4.53125q0.8125 -2.078125 0.8125 -4.171875q0 -1.859375 -0.75 -4.109375q-0.046875 -0.140625 -0.046875 -0.171875q0 -0.1875 0.140625 -0.328125q0.15625 -0.140625 0.34375 -0.140625q0.125 0 0.203125 0.078125q0.296875 0.296875 0.765625 1.953125q0.484375 1.640625 0.484375 2.859375q0 1.65625 -0.46875 3.078125q-0.453125 1.40625 -1.140625 2.5625q-0.6875 1.140625 -1.65625 2.375q-0.703125 0.890625 -0.9375 1.046875q-0.109375 0.09375 -0.234375 0.09375z" fill-rule="nonzero"></path></g></svg>

