<?xml version="1.0" standalone="yes"?>

<svg version="1.1" viewBox="0.0 0.0 956.0 100.0" fill="none" stroke="none" stroke-linecap="square" stroke-miterlimit="10" xmlns="http://www.w3.org/2000/svg" xmlns:xlink="http://www.w3.org/1999/xlink"><clipPath id="p.0"><path d="m0 0l956.0 0l0 100.0l-956.0 0l0 -100.0z" clip-rule="nonzero"></path></clipPath><g clip-path="url(#p.0)"><path fill="#000000" fill-opacity="0.0" d="m0 0l956.79266 0l0 100.0l-956.79266 0z" fill-rule="nonzero"></path><path fill="#cfe2f3" d="m88.36614 20.540682l256.0 0l0 32.09449l-256.0 0z" fill-rule="nonzero"></path><path stroke="#000000" stroke-width="2.0" stroke-linejoin="round" stroke-linecap="butt" d="m88.36614 20.540682l256.0 0l0 32.09449l-256.0 0z" fill-rule="nonzero"></path><path fill="#000000" fill-opacity="0.0" d="m88.36567 21.80315l0 30.834644" fill-rule="nonzero"></path><path stroke="#000000" stroke-width="2.0" stroke-linejoin="round" stroke-linecap="butt" d="m88.36567 21.80315l0 30.834644" fill-rule="nonzero"></path><path fill="#000000" fill-opacity="0.0" d="m104.36567 21.80315l0 30.834644" fill-rule="nonzero"></path><path stroke="#000000" stroke-width="2.0" stroke-linejoin="round" stroke-linecap="butt" d="m104.36567 21.80315l0 30.834644" fill-rule="nonzero"></path><path fill="#000000" fill-opacity="0.0" d="m120.36567 21.80315l0 30.834644" fill-rule="nonzero"></path><path stroke="#000000" stroke-width="2.0" stroke-linejoin="round" stroke-linecap="butt" d="m120.36567 21.80315l0 30.834644" fill-rule="nonzero"></path><path fill="#000000" fill-opacity="0.0" d="m136.36568 21.80315l0 30.834644" fill-rule="nonzero"></path><path stroke="#000000" stroke-width="2.0" stroke-linejoin="round" stroke-linecap="butt" d="m136.36568 21.80315l0 30.834644" fill-rule="nonzero"></path><path fill="#000000" fill-opacity="0.0" d="m152.36568 21.80315l0 30.834644" fill-rule="nonzero"></path><path stroke="#000000" stroke-width="2.0" stroke-linejoin="round" stroke-linecap="butt" d="m152.36568 21.80315l0 30.834644" fill-rule="nonzero"></path><path fill="#000000" fill-opacity="0.0" d="m168.36568 21.80315l0 30.834644" fill-rule="nonzero"></path><path stroke="#000000" stroke-width="2.0" stroke-linejoin="round" stroke-linecap="butt" d="m168.36568 21.80315l0 30.834644" fill-rule="nonzero"></path><path fill="#000000" fill-opacity="0.0" d="m184.36568 21.80315l0 30.834644" fill-rule="nonzero"></path><path stroke="#000000" stroke-width="2.0" stroke-linejoin="round" stroke-linecap="butt" d="m184.36568 21.80315l0 30.834644" fill-rule="nonzero"></path><path fill="#000000" fill-opacity="0.0" d="m200.36568 21.80315l0 30.834644" fill-rule="nonzero"></path><path stroke="#000000" stroke-width="2.0" stroke-linejoin="round" stroke-linecap="butt" d="m200.36568 21.80315l0 30.834644" fill-rule="nonzero"></path><path fill="#000000" fill-opacity="0.0" d="m216.36568 21.80315l0 30.834644" fill-rule="nonzero"></path><path stroke="#000000" stroke-width="2.0" stroke-linejoin="round" stroke-linecap="butt" d="m216.36568 21.80315l0 30.834644" fill-rule="nonzero"></path><path fill="#000000" fill-opacity="0.0" d="m232.36568 21.80315l0 30.834644" fill-rule="nonzero"></path><path stroke="#000000" stroke-width="2.0" stroke-linejoin="round" stroke-linecap="butt" d="m232.36568 21.80315l0 30.834644" fill-rule="nonzero"></path><path fill="#000000" fill-opacity="0.0" d="m248.36568 21.80315l0 30.834644" fill-rule="nonzero"></path><path stroke="#000000" stroke-width="2.0" stroke-linejoin="round" stroke-linecap="butt" d="m248.36568 21.80315l0 30.834644" fill-rule="nonzero"></path><path fill="#000000" fill-opacity="0.0" d="m264.36566 21.80315l0 30.834644" fill-rule="nonzero"></path><path stroke="#000000" stroke-width="2.0" stroke-linejoin="round" stroke-linecap="butt" d="m264.36566 21.80315l0 30.834644" fill-rule="nonzero"></path><path fill="#000000" fill-opacity="0.0" d="m280.36566 21.80315l0 30.834644" fill-rule="nonzero"></path><path stroke="#000000" stroke-width="2.0" stroke-linejoin="round" stroke-linecap="butt" d="m280.36566 21.80315l0 30.834644" fill-rule="nonzero"></path><path fill="#000000" fill-opacity="0.0" d="m296.36566 21.80315l0 30.834644" fill-rule="nonzero"></path><path stroke="#000000" stroke-width="2.0" stroke-linejoin="round" stroke-linecap="butt" d="m296.36566 21.80315l0 30.834644" fill-rule="nonzero"></path><path fill="#000000" fill-opacity="0.0" d="m312.3657 21.80315l0 30.834644" fill-rule="nonzero"></path><path stroke="#000000" stroke-width="2.0" stroke-linejoin="round" stroke-linecap="butt" d="m312.3657 21.80315l0 30.834644" fill-rule="nonzero"></path><path fill="#000000" fill-opacity="0.0" d="m328.3657 21.80315l0 30.834644" fill-rule="nonzero"></path><path stroke="#000000" stroke-width="2.0" stroke-linejoin="round" stroke-linecap="butt" d="m328.3657 21.80315l0 30.834644" fill-rule="nonzero"></path><path fill="#000000" fill-opacity="0.0" d="m344.3657 21.80315l0 30.834644" fill-rule="nonzero"></path><path stroke="#000000" stroke-width="2.0" stroke-linejoin="round" stroke-linecap="butt" d="m344.3657 21.80315l0 30.834644" fill-rule="nonzero"></path><path fill="#ffffff" d="m148.26904 25.154856l137.51181 0l0 21.606298l-137.51181 0z" fill-rule="nonzero"></path><path fill="#000000" d="m175.33238 32.112377q0.171875 -0.2343731 0.375 -0.3593731q0.21875 -0.125 0.453125 -0.125q0.421875 0 0.6875 0.296875q0.265625 0.2812481 0.265625 0.9687481l0 1.609375q0 0.6875 -0.265625 0.984375q-0.265625 0.296875 -0.6875 0.296875q-0.375 0 -0.609375 -0.21875q-0.234375 -0.21875 -0.34375 -0.796875q-0.0625 -0.390625 -0.265625 -0.609375q-0.375 -0.40625 -1.0625 -0.65625q-0.671875 -0.25 -1.359375 -0.25q-0.859375 0 -1.578125 0.375q-0.703125 0.359375 -1.25 1.203125q-0.546875 0.828125 -0.546875 1.984375l0 1.234375q0 1.375 0.984375 2.296875q1.0 0.90625 2.78125 0.90625q1.046875 0 1.78125 -0.28125q0.4375 -0.171875 0.921875 -0.65625q0.296875 -0.296875 0.453125 -0.390625q0.171875 -0.09375 0.390625 -0.09375q0.375 0 0.65625 0.296875q0.296875 0.28125 0.296875 0.671875q0 0.390625 -0.390625 0.828125q-0.5625 0.65625 -1.453125 1.03125q-1.203125 0.5 -2.65625 0.5q-1.6875 0 -3.03125 -0.703125q-1.09375 -0.546875 -1.875 -1.75q-0.765625 -1.203125 -0.765625 -2.625l0 -1.296875q0 -1.484375 0.6875 -2.765625q0.6875 -1.28125 1.90625 -1.96875q1.234375 -0.7031231 2.609375 -0.7031231q0.828125 0 1.546875 0.1875q0.71875 0.1875 1.34375 0.5781231zm6.242447 -1.2656231l0 4.046873q0.59375 -0.34375 1.203125 -0.515625q0.609375 -0.171875 1.234375 -0.171875q0.984375 0 1.75 0.34375q0.765625 0.328125 1.265625 1.046875q0.515625 0.71875 0.515625 1.8125l0 3.5625q0.71875 0 0.953125 0.140625q0.4375 0.296875 0.4375 0.8125q0 0.421875 -0.296875 0.6875q-0.28125 0.265625 -0.96875 0.265625l-2.171875 0q-0.671875 0 -0.96875 -0.265625q-0.28125 -0.265625 -0.28125 -0.6875q0 -0.515625 0.4375 -0.8125q0.234375 -0.140625 0.953125 -0.140625l0 -3.4375q0 -0.734375 -0.34375 -1.03125q-0.4375 -0.390625 -1.28125 -0.390625q-0.640625 0 -1.125 0.25q-0.484375 0.234375 -1.3125 1.046875l0 3.5625q0.734375 0 0.953125 0.140625q0.453125 0.296875 0.453125 0.8125q0 0.421875 -0.296875 0.6875q-0.28125 0.265625 -0.96875 0.265625l-2.171875 0q-0.6875 0 -0.984375 -0.265625q-0.28125 -0.265625 -0.28125 -0.6875q0 -0.515625 0.453125 -0.8125q0.21875 -0.140625 0.953125 -0.140625l0 -8.21875l-0.328125 0q-0.6875 0 -0.984375 -0.265625q-0.296875 -0.265625 -0.296875 -0.7031231q0 -0.40625 0.296875 -0.671875q0.296875 -0.265625 0.984375 -0.265625l2.21875 0zm14.867447 12.031248l0 -0.453125q-0.703125 0.390625 -1.578125 0.578125q-0.859375 0.1875 -1.5625 0.1875q-1.53125 0 -2.484375 -0.8125q-0.953125 -0.8125 -0.953125 -1.796875q0 -1.1875 1.21875 -2.203125q1.21875 -1.03125 3.375 -1.03125q0.859375 0 1.984375 0.171875l0 -0.453125q0 -0.421875 -0.359375 -0.6875q-0.359375 -0.265625 -1.390625 -0.265625q-0.84375 0 -2.203125 0.328125q-0.5 0.125 -0.765625 0.125q-0.390625 0 -0.65625 -0.265625q-0.265625 -0.28125 -0.265625 -0.71875q0 -0.234375 0.09375 -0.40625q0.09375 -0.1875 0.265625 -0.28125q0.171875 -0.109375 0.703125 -0.265625q0.703125 -0.1875 1.421875 -0.296875q0.734375 -0.125 1.328125 -0.125q1.78125 0 2.75 0.765625q0.984375 0.765625 0.984375 2.09375l0 3.90625l0.328125 0q0.6875 0 0.96875 0.265625q0.296875 0.265625 0.296875 0.6875q0 0.421875 -0.296875 0.6875q-0.28125 0.265625 -0.96875 0.265625l-2.234375 0zm0 -3.40625q-1.140625 -0.21875 -2.09375 -0.21875q-1.171875 0 -2.0 0.5625q-0.515625 0.359375 -0.515625 0.734375q0 0.265625 0.25 0.4375q0.453125 0.296875 1.265625 0.296875q0.6875 0 1.546875 -0.265625q0.875 -0.265625 1.546875 -0.734375l0 -0.8125zm7.570572 -5.015625l0 0.640625q0.515625 -0.453125 1.140625 -0.671875q0.625 -0.21875 1.359375 -0.21875q1.6875 0 2.671875 1.046875q0.78125 0.828125 0.78125 2.1875l0 3.53125q0.59375 0 0.875 0.265625q0.296875 0.265625 0.296875 0.6875q0 0.421875 -0.296875 0.6875q-0.28125 0.265625 -0.96875 0.265625l-1.71875 0q-0.6875 0 -0.984375 -0.265625q-0.28125 -0.265625 -0.28125 -0.6875q0 -0.421875 0.28125 -0.6875q0.296875 -0.265625 0.890625 -0.265625l0 -3.59375q0 -0.609375 -0.328125 -0.90625q-0.4375 -0.359375 -1.3125 -0.359375q-0.65625 0 -1.15625 0.25q-0.5 0.25 -1.25 1.078125l0 3.53125q0.734375 0 0.9375 0.140625q0.453125 0.28125 0.453125 0.8125q0 0.421875 -0.296875 0.6875q-0.28125 0.265625 -0.96875 0.265625l-2.15625 0q-0.6875 0 -0.984375 -0.265625q-0.296875 -0.265625 -0.296875 -0.6875q0 -0.515625 0.453125 -0.8125q0.21875 -0.140625 0.953125 -0.140625l0 -4.609375q-0.609375 0 -0.890625 -0.265625q-0.28125 -0.28125 -0.28125 -0.703125q0 -0.40625 0.28125 -0.671875q0.296875 -0.265625 0.984375 -0.265625l1.8125 0zm11.195572 0l0 0.640625q0.515625 -0.453125 1.140625 -0.671875q0.625 -0.21875 1.359375 -0.21875q1.6875 0 2.671875 1.046875q0.78125 0.828125 0.78125 2.1875l0 3.53125q0.59375 0 0.875 0.265625q0.296875 0.265625 0.296875 0.6875q0 0.421875 -0.296875 0.6875q-0.28125 0.265625 -0.96875 0.265625l-1.71875 0q-0.6875 0 -0.984375 -0.265625q-0.28125 -0.265625 -0.28125 -0.6875q0 -0.421875 0.28125 -0.6875q0.296875 -0.265625 0.890625 -0.265625l0 -3.59375q0 -0.609375 -0.328125 -0.90625q-0.4375 -0.359375 -1.3125 -0.359375q-0.65625 0 -1.15625 0.25q-0.5 0.25 -1.25 1.078125l0 3.53125q0.734375 0 0.9375 0.140625q0.453125 0.28125 0.453125 0.8125q0 0.421875 -0.296875 0.6875q-0.28125 0.265625 -0.96875 0.265625l-2.15625 0q-0.6875 0 -0.984375 -0.265625q-0.296875 -0.265625 -0.296875 -0.6875q0 -0.515625 0.453125 -0.8125q0.21875 -0.140625 0.953125 -0.140625l0 -4.609375q-0.609375 0 -0.890625 -0.265625q-0.28125 -0.28125 -0.28125 -0.703125q0 -0.40625 0.28125 -0.671875q0.296875 -0.265625 0.984375 -0.265625l1.8125 0zm17.883072 5.171875l-7.796875 0q0.296875 0.75 1.046875 1.203125q0.765625 0.453125 2.046875 0.453125q1.0625 0 2.8125 -0.453125q0.734375 -0.1875 1.0 -0.1875q0.390625 0 0.640625 0.265625q0.265625 0.265625 0.265625 0.671875q0 0.375 -0.28125 0.640625q-0.375 0.34375 -1.8125 0.65625q-1.4375 0.3125 -2.765625 0.3125q-2.28125 0 -3.65625 -1.28125q-1.359375 -1.296875 -1.359375 -3.1875q0 -2.0 1.484375 -3.25q1.484375 -1.265625 3.40625 -1.265625q1.15625 0 2.125 0.40625q0.96875 0.40625 1.453125 0.875q0.65625 0.6875 1.09375 1.703125q0.296875 0.703125 0.296875 1.640625l0 0.796875zm-2.09375 -1.90625q-0.4375 -0.8125 -1.15625 -1.203125q-0.703125 -0.40625 -1.671875 -0.40625q-0.96875 0 -1.671875 0.40625q-0.703125 0.390625 -1.140625 1.203125l5.640625 0zm9.476822 -6.874998l0 10.124998l2.28125 0q0.6875 0 0.96875 0.265625q0.296875 0.265625 0.296875 0.6875q0 0.421875 -0.296875 0.6875q-0.28125 0.265625 -0.96875 0.265625l-6.46875 0q-0.6875 0 -0.984375 -0.265625q-0.28125 -0.265625 -0.28125 -0.6875q0 -0.421875 0.28125 -0.6875q0.296875 -0.265625 0.984375 -0.265625l2.28125 0l0 -8.21875l-1.53125 0q-0.671875 0 -0.96875 -0.265625q-0.296875 -0.265625 -0.296875 -0.7031231q0 -0.40625 0.28125 -0.671875q0.296875 -0.265625 0.984375 -0.265625l3.4375 0zm25.594254 4.968748l0 2.09375q0 1.84375 -1.078125 3.546875q-1.078125 1.703125 -3.0625 1.703125q-1.15625 0 -1.953125 -0.5q-0.78125 -0.515625 -1.5 -1.875q-0.703125 -1.359375 -0.703125 -2.875l0 -2.09375q0 -1.84375 1.0625 -3.546875q1.0625 -1.7031231 3.0625 -1.7031231q1.140625 0 1.9375 0.5q0.796875 0.5 1.515625 1.8593731q0.71875 1.359375 0.71875 2.890625zm-1.921875 0q0 -1.546875 -0.859375 -2.703125q-0.484375 -0.640625 -1.375 -0.640625q-0.875 0 -1.421875 0.703125q-0.828125 1.0625 -0.828125 2.640625l0 2.09375q0 1.546875 0.875 2.703125q0.484375 0.640625 1.390625 0.640625q0.84375 0 1.390625 -0.703125q0.828125 -1.0625 0.828125 -2.640625l0 -2.09375z" fill-rule="nonzero"></path><path fill="#cfe2f3" d="m359.57086 20.540682l256.0 0l0 32.09449l-256.0 0z" fill-rule="nonzero"></path><path stroke="#000000" stroke-width="2.0" stroke-linejoin="round" stroke-linecap="butt" d="m359.57086 20.540682l256.0 0l0 32.09449l-256.0 0z" fill-rule="nonzero"></path><path fill="#000000" fill-opacity="0.0" d="m359.5704 21.80315l0 30.834644" fill-rule="nonzero"></path><path stroke="#000000" stroke-width="2.0" stroke-linejoin="round" stroke-linecap="butt" d="m359.5704 21.80315l0 30.834644" fill-rule="nonzero"></path><path fill="#000000" fill-opacity="0.0" d="m375.5704 21.80315l0 30.834644" fill-rule="nonzero"></path><path stroke="#000000" stroke-width="2.0" stroke-linejoin="round" stroke-linecap="butt" d="m375.5704 21.80315l0 30.834644" fill-rule="nonzero"></path><path fill="#000000" fill-opacity="0.0" d="m391.5704 21.80315l0 30.834644" fill-rule="nonzero"></path><path stroke="#000000" stroke-width="2.0" stroke-linejoin="round" stroke-linecap="butt" d="m391.5704 21.80315l0 30.834644" fill-rule="nonzero"></path><path fill="#000000" fill-opacity="0.0" d="m407.5704 21.80315l0 30.834644" fill-rule="nonzero"></path><path stroke="#000000" stroke-width="2.0" stroke-linejoin="round" stroke-linecap="butt" d="m407.5704 21.80315l0 30.834644" fill-rule="nonzero"></path><path fill="#000000" fill-opacity="0.0" d="m423.57037 21.80315l0 30.834644" fill-rule="nonzero"></path><path stroke="#000000" stroke-width="2.0" stroke-linejoin="round" stroke-linecap="butt" d="m423.57037 21.80315l0 30.834644" fill-rule="nonzero"></path><path fill="#000000" fill-opacity="0.0" d="m439.57037 21.80315l0 30.834644" fill-rule="nonzero"></path><path stroke="#000000" stroke-width="2.0" stroke-linejoin="round" stroke-linecap="butt" d="m439.57037 21.80315l0 30.834644" fill-rule="nonzero"></path><path fill="#000000" fill-opacity="0.0" d="m455.57037 21.80315l0 30.834644" fill-rule="nonzero"></path><path stroke="#000000" stroke-width="2.0" stroke-linejoin="round" stroke-linecap="butt" d="m455.57037 21.80315l0 30.834644" fill-rule="nonzero"></path><path fill="#000000" fill-opacity="0.0" d="m471.57037 21.80315l0 30.834644" fill-rule="nonzero"></path><path stroke="#000000" stroke-width="2.0" stroke-linejoin="round" stroke-linecap="butt" d="m471.57037 21.80315l0 30.834644" fill-rule="nonzero"></path><path fill="#000000" fill-opacity="0.0" d="m487.57037 21.80315l0 30.834644" fill-rule="nonzero"></path><path stroke="#000000" stroke-width="2.0" stroke-linejoin="round" stroke-linecap="butt" d="m487.57037 21.80315l0 30.834644" fill-rule="nonzero"></path><path fill="#000000" fill-opacity="0.0" d="m503.57037 21.80315l0 30.834644" fill-rule="nonzero"></path><path stroke="#000000" stroke-width="2.0" stroke-linejoin="round" stroke-linecap="butt" d="m503.57037 21.80315l0 30.834644" fill-rule="nonzero"></path><path fill="#000000" fill-opacity="0.0" d="m519.5704 21.80315l0 30.834644" fill-rule="nonzero"></path><path stroke="#000000" stroke-width="2.0" stroke-linejoin="round" stroke-linecap="butt" d="m519.5704 21.80315l0 30.834644" fill-rule="nonzero"></path><path fill="#000000" fill-opacity="0.0" d="m535.5704 21.80315l0 30.834644" fill-rule="nonzero"></path><path stroke="#000000" stroke-width="2.0" stroke-linejoin="round" stroke-linecap="butt" d="m535.5704 21.80315l0 30.834644" fill-rule="nonzero"></path><path fill="#000000" fill-opacity="0.0" d="m551.5704 21.80315l0 30.834644" fill-rule="nonzero"></path><path stroke="#000000" stroke-width="2.0" stroke-linejoin="round" stroke-linecap="butt" d="m551.5704 21.80315l0 30.834644" fill-rule="nonzero"></path><path fill="#000000" fill-opacity="0.0" d="m567.5704 21.80315l0 30.834644" fill-rule="nonzero"></path><path stroke="#000000" stroke-width="2.0" stroke-linejoin="round" stroke-linecap="butt" d="m567.5704 21.80315l0 30.834644" fill-rule="nonzero"></path><path fill="#000000" fill-opacity="0.0" d="m583.57043 21.80315l0 30.834644" fill-rule="nonzero"></path><path stroke="#000000" stroke-width="2.0" stroke-linejoin="round" stroke-linecap="butt" d="m583.57043 21.80315l0 30.834644" fill-rule="nonzero"></path><path fill="#000000" fill-opacity="0.0" d="m599.57043 21.80315l0 30.834644" fill-rule="nonzero"></path><path stroke="#000000" stroke-width="2.0" stroke-linejoin="round" stroke-linecap="butt" d="m599.57043 21.80315l0 30.834644" fill-rule="nonzero"></path><path fill="#000000" fill-opacity="0.0" d="m615.57043 21.80315l0 30.834644" fill-rule="nonzero"></path><path stroke="#000000" stroke-width="2.0" stroke-linejoin="round" stroke-linecap="butt" d="m615.57043 21.80315l0 30.834644" fill-rule="nonzero"></path><path fill="#ffffff" d="m419.4738 25.154856l137.51181 0l0 21.606298l-137.51181 0z" fill-rule="nonzero"></path><path fill="#000000" d="m446.53714 32.112377q0.171875 -0.2343731 0.375 -0.3593731q0.21875 -0.125 0.453125 -0.125q0.421875 0 0.6875 0.296875q0.265625 0.2812481 0.265625 0.9687481l0 1.609375q0 0.6875 -0.265625 0.984375q-0.265625 0.296875 -0.6875 0.296875q-0.375 0 -0.609375 -0.21875q-0.234375 -0.21875 -0.34375 -0.796875q-0.0625 -0.390625 -0.265625 -0.609375q-0.375 -0.40625 -1.0625 -0.65625q-0.671875 -0.25 -1.359375 -0.25q-0.859375 0 -1.578125 0.375q-0.703125 0.359375 -1.25 1.203125q-0.546875 0.828125 -0.546875 1.984375l0 1.234375q0 1.375 0.984375 2.296875q1.0 0.90625 2.78125 0.90625q1.046875 0 1.78125 -0.28125q0.4375 -0.171875 0.921875 -0.65625q0.296875 -0.296875 0.453125 -0.390625q0.171875 -0.09375 0.390625 -0.09375q0.375 0 0.65625 0.296875q0.296875 0.28125 0.296875 0.671875q0 0.390625 -0.390625 0.828125q-0.5625 0.65625 -1.453125 1.03125q-1.203125 0.5 -2.65625 0.5q-1.6875 0 -3.03125 -0.703125q-1.09375 -0.546875 -1.875 -1.75q-0.765625 -1.203125 -0.765625 -2.625l0 -1.296875q0 -1.484375 0.6875 -2.765625q0.6875 -1.28125 1.90625 -1.96875q1.234375 -0.7031231 2.609375 -0.7031231q0.828125 0 1.546875 0.1875q0.71875 0.1875 1.34375 0.5781231zm6.2424316 -1.2656231l0 4.046873q0.59375 -0.34375 1.203125 -0.515625q0.609375 -0.171875 1.234375 -0.171875q0.984375 0 1.75 0.34375q0.765625 0.328125 1.265625 1.046875q0.515625 0.71875 0.515625 1.8125l0 3.5625q0.71875 0 0.953125 0.140625q0.4375 0.296875 0.4375 0.8125q0 0.421875 -0.296875 0.6875q-0.28125 0.265625 -0.96875 0.265625l-2.171875 0q-0.671875 0 -0.96875 -0.265625q-0.28125 -0.265625 -0.28125 -0.6875q0 -0.515625 0.4375 -0.8125q0.234375 -0.140625 0.953125 -0.140625l0 -3.4375q0 -0.734375 -0.34375 -1.03125q-0.4375 -0.390625 -1.28125 -0.390625q-0.640625 0 -1.125 0.25q-0.484375 0.234375 -1.3125 1.046875l0 3.5625q0.734375 0 0.953125 0.140625q0.453125 0.296875 0.453125 0.8125q0 0.421875 -0.296875 0.6875q-0.28125 0.265625 -0.96875 0.265625l-2.171875 0q-0.6875 0 -0.984375 -0.265625q-0.28125 -0.265625 -0.28125 -0.6875q0 -0.515625 0.453125 -0.8125q0.21875 -0.140625 0.953125 -0.140625l0 -8.21875l-0.328125 0q-0.6875 0 -0.984375 -0.265625q-0.296875 -0.265625 -0.296875 -0.7031231q0 -0.40625 0.296875 -0.671875q0.296875 -0.265625 0.984375 -0.265625l2.21875 0zm14.867462 12.031248l0 -0.453125q-0.703125 0.390625 -1.578125 0.578125q-0.859375 0.1875 -1.5625 0.1875q-1.53125 0 -2.484375 -0.8125q-0.953125 -0.8125 -0.953125 -1.796875q0 -1.1875 1.21875 -2.203125q1.21875 -1.03125 3.375 -1.03125q0.859375 0 1.984375 0.171875l0 -0.453125q0 -0.421875 -0.359375 -0.6875q-0.359375 -0.265625 -1.390625 -0.265625q-0.84375 0 -2.203125 0.328125q-0.5 0.125 -0.765625 0.125q-0.390625 0 -0.65625 -0.265625q-0.265625 -0.28125 -0.265625 -0.71875q0 -0.234375 0.09375 -0.40625q0.09375 -0.1875 0.265625 -0.28125q0.171875 -0.109375 0.703125 -0.265625q0.703125 -0.1875 1.421875 -0.296875q0.734375 -0.125 1.328125 -0.125q1.78125 0 2.75 0.765625q0.984375 0.765625 0.984375 2.09375l0 3.90625l0.328125 0q0.6875 0 0.96875 0.265625q0.296875 0.265625 0.296875 0.6875q0 0.421875 -0.296875 0.6875q-0.28125 0.265625 -0.96875 0.265625l-2.234375 0zm0 -3.40625q-1.140625 -0.21875 -2.09375 -0.21875q-1.171875 0 -2.0 0.5625q-0.515625 0.359375 -0.515625 0.734375q0 0.265625 0.25 0.4375q0.453125 0.296875 1.265625 0.296875q0.6875 0 1.546875 -0.265625q0.875 -0.265625 1.546875 -0.734375l0 -0.8125zm7.5705566 -5.015625l0 0.640625q0.515625 -0.453125 1.140625 -0.671875q0.625 -0.21875 1.359375 -0.21875q1.6875 0 2.671875 1.046875q0.78125 0.828125 0.78125 2.1875l0 3.53125q0.59375 0 0.875 0.265625q0.296875 0.265625 0.296875 0.6875q0 0.421875 -0.296875 0.6875q-0.28125 0.265625 -0.96875 0.265625l-1.71875 0q-0.6875 0 -0.984375 -0.265625q-0.28125 -0.265625 -0.28125 -0.6875q0 -0.421875 0.28125 -0.6875q0.296875 -0.265625 0.890625 -0.265625l0 -3.59375q0 -0.609375 -0.328125 -0.90625q-0.4375 -0.359375 -1.3125 -0.359375q-0.65625 0 -1.15625 0.25q-0.5 0.25 -1.25 1.078125l0 3.53125q0.734375 0 0.9375 0.140625q0.453125 0.28125 0.453125 0.8125q0 0.421875 -0.296875 0.6875q-0.28125 0.265625 -0.96875 0.265625l-2.15625 0q-0.6875 0 -0.984375 -0.265625q-0.296875 -0.265625 -0.296875 -0.6875q0 -0.515625 0.453125 -0.8125q0.21875 -0.140625 0.953125 -0.140625l0 -4.609375q-0.609375 0 -0.890625 -0.265625q-0.28125 -0.28125 -0.28125 -0.703125q0 -0.40625 0.28125 -0.671875q0.296875 -0.265625 0.984375 -0.265625l1.8125 0zm11.195587 0l0 0.640625q0.515625 -0.453125 1.140625 -0.671875q0.625 -0.21875 1.359375 -0.21875q1.6875 0 2.671875 1.046875q0.78125 0.828125 0.78125 2.1875l0 3.53125q0.59375 0 0.875 0.265625q0.296875 0.265625 0.296875 0.6875q0 0.421875 -0.296875 0.6875q-0.28125 0.265625 -0.96875 0.265625l-1.71875 0q-0.6875 0 -0.984375 -0.265625q-0.28125 -0.265625 -0.28125 -0.6875q0 -0.421875 0.28125 -0.6875q0.296875 -0.265625 0.890625 -0.265625l0 -3.59375q0 -0.609375 -0.328125 -0.90625q-0.4375 -0.359375 -1.3125 -0.359375q-0.65625 0 -1.15625 0.25q-0.5 0.25 -1.25 1.078125l0 3.53125q0.734375 0 0.9375 0.140625q0.453125 0.28125 0.453125 0.8125q0 0.421875 -0.296875 0.6875q-0.28125 0.265625 -0.96875 0.265625l-2.15625 0q-0.6875 0 -0.984375 -0.265625q-0.296875 -0.265625 -0.296875 -0.6875q0 -0.515625 0.453125 -0.8125q0.21875 -0.140625 0.953125 -0.140625l0 -4.609375q-0.609375 0 -0.890625 -0.265625q-0.28125 -0.28125 -0.28125 -0.703125q0 -0.40625 0.28125 -0.671875q0.296875 -0.265625 0.984375 -0.265625l1.8125 0zm17.883057 5.171875l-7.796875 0q0.296875 0.75 1.046875 1.203125q0.765625 0.453125 2.046875 0.453125q1.0625 0 2.8125 -0.453125q0.734375 -0.1875 1.0 -0.1875q0.390625 0 0.640625 0.265625q0.265625 0.265625 0.265625 0.671875q0 0.375 -0.28125 0.640625q-0.375 0.34375 -1.8125 0.65625q-1.4375 0.3125 -2.765625 0.3125q-2.28125 0 -3.65625 -1.28125q-1.359375 -1.296875 -1.359375 -3.1875q0 -2.0 1.484375 -3.25q1.484375 -1.265625 3.40625 -1.265625q1.15625 0 2.125 0.40625q0.96875 0.40625 1.453125 0.875q0.65625 0.6875 1.09375 1.703125q0.296875 0.703125 0.296875 1.640625l0 0.796875zm-2.09375 -1.90625q-0.4375 -0.8125 -1.15625 -1.203125q-0.703125 -0.40625 -1.671875 -0.40625q-0.96875 0 -1.671875 0.40625q-0.703125 0.390625 -1.140625 1.203125l5.640625 0zm9.476837 -6.874998l0 10.124998l2.28125 0q0.6875 0 0.96875 0.265625q0.296875 0.265625 0.296875 0.6875q0 0.421875 -0.296875 0.6875q-0.28125 0.265625 -0.96875 0.265625l-6.46875 0q-0.6875 0 -0.984375 -0.265625q-0.28125 -0.265625 -0.28125 -0.6875q0 -0.421875 0.28125 -0.6875q0.296875 -0.265625 0.984375 -0.265625l2.28125 0l0 -8.21875l-1.53125 0q-0.671875 0 -0.96875 -0.265625q-0.296875 -0.265625 -0.296875 -0.7031231q0 -0.40625 0.28125 -0.671875q0.296875 -0.265625 0.984375 -0.265625l3.4375 0zm22.406738 -0.28125l0 10.406248l1.921875 0q0.6875 0 0.96875 0.265625q0.296875 0.265625 0.296875 0.6875q0 0.421875 -0.296875 0.6875q-0.28125 0.265625 -0.96875 0.265625l-5.75 0q-0.6875 0 -0.984375 -0.265625q-0.28125 -0.265625 -0.28125 -0.6875q0 -0.421875 0.28125 -0.6875q0.296875 -0.265625 0.984375 -0.265625l1.921875 0l0 -7.921875l-1.6875 0.4375q-0.421875 0.109375 -0.625 0.109375q-0.359375 0 -0.625 -0.28125q-0.265625 -0.296875 -0.265625 -0.703125q0 -0.390625 0.1875 -0.609375q0.203125 -0.2187481 0.828125 -0.3749981l4.09375 -1.0625z" fill-rule="nonzero"></path><path fill="#cfe2f3" d="m679.63385 20.540682l256.0 0l0 32.09449l-256.0 0z" fill-rule="nonzero"></path><path stroke="#000000" stroke-width="2.0" stroke-linejoin="round" stroke-linecap="butt" d="m679.63385 20.540682l256.0 0l0 32.09449l-256.0 0z" fill-rule="nonzero"></path><path fill="#000000" fill-opacity="0.0" d="m679.63336 21.80315l0 30.834644" fill-rule="nonzero"></path><path stroke="#000000" stroke-width="2.0" stroke-linejoin="round" stroke-linecap="butt" d="m679.63336 21.80315l0 30.834644" fill-rule="nonzero"></path><path fill="#000000" fill-opacity="0.0" d="m695.63336 21.80315l0 30.834644" fill-rule="nonzero"></path><path stroke="#000000" stroke-width="2.0" stroke-linejoin="round" stroke-linecap="butt" d="m695.63336 21.80315l0 30.834644" fill-rule="nonzero"></path><path fill="#000000" fill-opacity="0.0" d="m711.63336 21.80315l0 30.834644" fill-rule="nonzero"></path><path stroke="#000000" stroke-width="2.0" stroke-linejoin="round" stroke-linecap="butt" d="m711.63336 21.80315l0 30.834644" fill-rule="nonzero"></path><path fill="#000000" fill-opacity="0.0" d="m727.63336 21.80315l0 30.834644" fill-rule="nonzero"></path><path stroke="#000000" stroke-width="2.0" stroke-linejoin="round" stroke-linecap="butt" d="m727.63336 21.80315l0 30.834644" fill-rule="nonzero"></path><path fill="#000000" fill-opacity="0.0" d="m743.63336 21.80315l0 30.834644" fill-rule="nonzero"></path><path stroke="#000000" stroke-width="2.0" stroke-linejoin="round" stroke-linecap="butt" d="m743.63336 21.80315l0 30.834644" fill-rule="nonzero"></path><path fill="#000000" fill-opacity="0.0" d="m759.63336 21.80315l0 30.834644" fill-rule="nonzero"></path><path stroke="#000000" stroke-width="2.0" stroke-linejoin="round" stroke-linecap="butt" d="m759.63336 21.80315l0 30.834644" fill-rule="nonzero"></path><path fill="#000000" fill-opacity="0.0" d="m775.63336 21.80315l0 30.834644" fill-rule="nonzero"></path><path stroke="#000000" stroke-width="2.0" stroke-linejoin="round" stroke-linecap="butt" d="m775.63336 21.80315l0 30.834644" fill-rule="nonzero"></path><path fill="#000000" fill-opacity="0.0" d="m791.63336 21.80315l0 30.834644" fill-rule="nonzero"></path><path stroke="#000000" stroke-width="2.0" stroke-linejoin="round" stroke-linecap="butt" d="m791.63336 21.80315l0 30.834644" fill-rule="nonzero"></path><path fill="#000000" fill-opacity="0.0" d="m807.63336 21.80315l0 30.834644" fill-rule="nonzero"></path><path stroke="#000000" stroke-width="2.0" stroke-linejoin="round" stroke-linecap="butt" d="m807.63336 21.80315l0 30.834644" fill-rule="nonzero"></path><path fill="#000000" fill-opacity="0.0" d="m823.63336 21.80315l0 30.834644" fill-rule="nonzero"></path><path stroke="#000000" stroke-width="2.0" stroke-linejoin="round" stroke-linecap="butt" d="m823.63336 21.80315l0 30.834644" fill-rule="nonzero"></path><path fill="#000000" fill-opacity="0.0" d="m839.63336 21.80315l0 30.834644" fill-rule="nonzero"></path><path stroke="#000000" stroke-width="2.0" stroke-linejoin="round" stroke-linecap="butt" d="m839.63336 21.80315l0 30.834644" fill-rule="nonzero"></path><path fill="#000000" fill-opacity="0.0" d="m855.63336 21.80315l0 30.834644" fill-rule="nonzero"></path><path stroke="#000000" stroke-width="2.0" stroke-linejoin="round" stroke-linecap="butt" d="m855.63336 21.80315l0 30.834644" fill-rule="nonzero"></path><path fill="#000000" fill-opacity="0.0" d="m871.63336 21.80315l0 30.834644" fill-rule="nonzero"></path><path stroke="#000000" stroke-width="2.0" stroke-linejoin="round" stroke-linecap="butt" d="m871.63336 21.80315l0 30.834644" fill-rule="nonzero"></path><path fill="#000000" fill-opacity="0.0" d="m887.63336 21.80315l0 30.834644" fill-rule="nonzero"></path><path stroke="#000000" stroke-width="2.0" stroke-linejoin="round" stroke-linecap="butt" d="m887.63336 21.80315l0 30.834644" fill-rule="nonzero"></path><path fill="#000000" fill-opacity="0.0" d="m903.63336 21.80315l0 30.834644" fill-rule="nonzero"></path><path stroke="#000000" stroke-width="2.0" stroke-linejoin="round" stroke-linecap="butt" d="m903.63336 21.80315l0 30.834644" fill-rule="nonzero"></path><path fill="#000000" fill-opacity="0.0" d="m919.63336 21.80315l0 30.834644" fill-rule="nonzero"></path><path stroke="#000000" stroke-width="2.0" stroke-linejoin="round" stroke-linecap="butt" d="m919.63336 21.80315l0 30.834644" fill-rule="nonzero"></path><path fill="#000000" fill-opacity="0.0" d="m935.63336 21.80315l0 30.834644" fill-rule="nonzero"></path><path stroke="#000000" stroke-width="2.0" stroke-linejoin="round" stroke-linecap="butt" d="m935.63336 21.80315l0 30.834644" fill-rule="nonzero"></path><path fill="#ffffff" d="m739.53674 25.154856l137.51184 0l0 21.606298l-137.51184 0z" fill-rule="nonzero"></path><path fill="#000000" d="m766.6001 32.112377q0.171875 -0.2343731 0.375 -0.3593731q0.21875 -0.125 0.453125 -0.125q0.421875 0 0.6875 0.296875q0.265625 0.2812481 0.265625 0.9687481l0 1.609375q0 0.6875 -0.265625 0.984375q-0.265625 0.296875 -0.6875 0.296875q-0.375 0 -0.609375 -0.21875q-0.234375 -0.21875 -0.34375 -0.796875q-0.0625 -0.390625 -0.265625 -0.609375q-0.375 -0.40625 -1.0625 -0.65625q-0.671875 -0.25 -1.359375 -0.25q-0.859375 0 -1.578125 0.375q-0.703125 0.359375 -1.25 1.203125q-0.546875 0.828125 -0.546875 1.984375l0 1.234375q0 1.375 0.984375 2.296875q1.0 0.90625 2.78125 0.90625q1.046875 0 1.78125 -0.28125q0.4375 -0.171875 0.921875 -0.65625q0.296875 -0.296875 0.453125 -0.390625q0.171875 -0.09375 0.390625 -0.09375q0.375 0 0.65625 0.296875q0.296875 0.28125 0.296875 0.671875q0 0.390625 -0.390625 0.828125q-0.5625 0.65625 -1.453125 1.03125q-1.203125 0.5 -2.65625 0.5q-1.6875 0 -3.03125 -0.703125q-1.09375 -0.546875 -1.875 -1.75q-0.765625 -1.203125 -0.765625 -2.625l0 -1.296875q0 -1.484375 0.6875 -2.765625q0.6875 -1.28125 1.90625 -1.96875q1.234375 -0.7031231 2.609375 -0.7031231q0.828125 0 1.546875 0.1875q0.71875 0.1875 1.34375 0.5781231zm6.2424316 -1.2656231l0 4.046873q0.59375 -0.34375 1.203125 -0.515625q0.609375 -0.171875 1.234375 -0.171875q0.984375 0 1.75 0.34375q0.765625 0.328125 1.265625 1.046875q0.515625 0.71875 0.515625 1.8125l0 3.5625q0.71875 0 0.953125 0.140625q0.4375 0.296875 0.4375 0.8125q0 0.421875 -0.296875 0.6875q-0.28125 0.265625 -0.96875 0.265625l-2.171875 0q-0.671875 0 -0.96875 -0.265625q-0.28125 -0.265625 -0.28125 -0.6875q0 -0.515625 0.4375 -0.8125q0.234375 -0.140625 0.953125 -0.140625l0 -3.4375q0 -0.734375 -0.34375 -1.03125q-0.4375 -0.390625 -1.28125 -0.390625q-0.640625 0 -1.125 0.25q-0.484375 0.234375 -1.3125 1.046875l0 3.5625q0.734375 0 0.953125 0.140625q0.453125 0.296875 0.453125 0.8125q0 0.421875 -0.296875 0.6875q-0.28125 0.265625 -0.96875 0.265625l-2.171875 0q-0.6875 0 -0.984375 -0.265625q-0.28125 -0.265625 -0.28125 -0.6875q0 -0.515625 0.453125 -0.8125q0.21875 -0.140625 0.953125 -0.140625l0 -8.21875l-0.328125 0q-0.6875 0 -0.984375 -0.265625q-0.296875 -0.265625 -0.296875 -0.7031231q0 -0.40625 0.296875 -0.671875q0.296875 -0.265625 0.984375 -0.265625l2.21875 0zm14.867432 12.031248l0 -0.453125q-0.703125 0.390625 -1.578125 0.578125q-0.859375 0.1875 -1.5625 0.1875q-1.53125 0 -2.484375 -0.8125q-0.953125 -0.8125 -0.953125 -1.796875q0 -1.1875 1.21875 -2.203125q1.21875 -1.03125 3.375 -1.03125q0.859375 0 1.984375 0.171875l0 -0.453125q0 -0.421875 -0.359375 -0.6875q-0.359375 -0.265625 -1.390625 -0.265625q-0.84375 0 -2.203125 0.328125q-0.5 0.125 -0.765625 0.125q-0.390625 0 -0.65625 -0.265625q-0.265625 -0.28125 -0.265625 -0.71875q0 -0.234375 0.09375 -0.40625q0.09375 -0.1875 0.265625 -0.28125q0.171875 -0.109375 0.703125 -0.265625q0.703125 -0.1875 1.421875 -0.296875q0.734375 -0.125 1.328125 -0.125q1.78125 0 2.75 0.765625q0.984375 0.765625 0.984375 2.09375l0 3.90625l0.328125 0q0.6875 0 0.96875 0.265625q0.296875 0.265625 0.296875 0.6875q0 0.421875 -0.296875 0.6875q-0.28125 0.265625 -0.96875 0.265625l-2.234375 0zm0 -3.40625q-1.140625 -0.21875 -2.09375 -0.21875q-1.171875 0 -2.0 0.5625q-0.515625 0.359375 -0.515625 0.734375q0 0.265625 0.25 0.4375q0.453125 0.296875 1.265625 0.296875q0.6875 0 1.546875 -0.265625q0.875 -0.265625 1.546875 -0.734375l0 -0.8125zm7.5705566 -5.015625l0 0.640625q0.515625 -0.453125 1.140625 -0.671875q0.625 -0.21875 1.359375 -0.21875q1.6875 0 2.671875 1.046875q0.78125 0.828125 0.78125 2.1875l0 3.53125q0.59375 0 0.875 0.265625q0.296875 0.265625 0.296875 0.6875q0 0.421875 -0.296875 0.6875q-0.28125 0.265625 -0.96875 0.265625l-1.71875 0q-0.6875 0 -0.984375 -0.265625q-0.28125 -0.265625 -0.28125 -0.6875q0 -0.421875 0.28125 -0.6875q0.296875 -0.265625 0.890625 -0.265625l0 -3.59375q0 -0.609375 -0.328125 -0.90625q-0.4375 -0.359375 -1.3125 -0.359375q-0.65625 0 -1.15625 0.25q-0.5 0.25 -1.25 1.078125l0 3.53125q0.734375 0 0.9375 0.140625q0.453125 0.28125 0.453125 0.8125q0 0.421875 -0.296875 0.6875q-0.28125 0.265625 -0.96875 0.265625l-2.15625 0q-0.6875 0 -0.984375 -0.265625q-0.296875 -0.265625 -0.296875 -0.6875q0 -0.515625 0.453125 -0.8125q0.21875 -0.140625 0.953125 -0.140625l0 -4.609375q-0.609375 0 -0.890625 -0.265625q-0.28125 -0.28125 -0.28125 -0.703125q0 -0.40625 0.28125 -0.671875q0.296875 -0.265625 0.984375 -0.265625l1.8125 0zm11.195618 0l0 0.640625q0.515625 -0.453125 1.140625 -0.671875q0.625 -0.21875 1.359375 -0.21875q1.6875 0 2.671875 1.046875q0.78125 0.828125 0.78125 2.1875l0 3.53125q0.59375 0 0.875 0.265625q0.296875 0.265625 0.296875 0.6875q0 0.421875 -0.296875 0.6875q-0.28125 0.265625 -0.96875 0.265625l-1.71875 0q-0.6875 0 -0.984375 -0.265625q-0.28125 -0.265625 -0.28125 -0.6875q0 -0.421875 0.28125 -0.6875q0.296875 -0.265625 0.890625 -0.265625l0 -3.59375q0 -0.609375 -0.328125 -0.90625q-0.4375 -0.359375 -1.3125 -0.359375q-0.65625 0 -1.15625 0.25q-0.5 0.25 -1.25 1.078125l0 3.53125q0.734375 0 0.9375 0.140625q0.453125 0.28125 0.453125 0.8125q0 0.421875 -0.296875 0.6875q-0.28125 0.265625 -0.96875 0.265625l-2.15625 0q-0.6875 0 -0.984375 -0.265625q-0.296875 -0.265625 -0.296875 -0.6875q0 -0.515625 0.453125 -0.8125q0.21875 -0.140625 0.953125 -0.140625l0 -4.609375q-0.609375 0 -0.890625 -0.265625q-0.28125 -0.28125 -0.28125 -0.703125q0 -0.40625 0.28125 -0.671875q0.296875 -0.265625 0.984375 -0.265625l1.8125 0zm17.883057 5.171875l-7.796875 0q0.296875 0.75 1.046875 1.203125q0.765625 0.453125 2.046875 0.453125q1.0625 0 2.8125 -0.453125q0.734375 -0.1875 1.0 -0.1875q0.390625 0 0.640625 0.265625q0.265625 0.265625 0.265625 0.671875q0 0.375 -0.28125 0.640625q-0.375 0.34375 -1.8125 0.65625q-1.4375 0.3125 -2.765625 0.3125q-2.28125 0 -3.65625 -1.28125q-1.359375 -1.296875 -1.359375 -3.1875q0 -2.0 1.484375 -3.25q1.484375 -1.265625 3.40625 -1.265625q1.15625 0 2.125 0.40625q0.96875 0.40625 1.453125 0.875q0.65625 0.6875 1.09375 1.703125q0.296875 0.703125 0.296875 1.640625l0 0.796875zm-2.09375 -1.90625q-0.4375 -0.8125 -1.15625 -1.203125q-0.703125 -0.40625 -1.671875 -0.40625q-0.96875 0 -1.671875 0.40625q-0.703125 0.390625 -1.140625 1.203125l5.640625 0zm9.476807 -6.874998l0 10.124998l2.28125 0q0.6875 0 0.96875 0.265625q0.296875 0.265625 0.296875 0.6875q0 0.421875 -0.296875 0.6875q-0.28125 0.265625 -0.96875 0.265625l-6.46875 0q-0.6875 0 -0.984375 -0.265625q-0.28125 -0.265625 -0.28125 -0.6875q0 -0.421875 0.28125 -0.6875q0.296875 -0.265625 0.984375 -0.265625l2.28125 0l0 -8.21875l-1.53125 0q-0.671875 0 -0.96875 -0.265625q-0.296875 -0.265625 -0.296875 -0.7031231q0 -0.40625 0.28125 -0.671875q0.296875 -0.265625 0.984375 -0.265625l3.4375 0zm19.06305 4.374998l0 5.75l0.6875 0q0.671875 0 0.96875 0.265625q0.296875 0.265625 0.296875 0.6875q0 0.421875 -0.296875 0.6875q-0.296875 0.265625 -0.96875 0.265625l-2.5 0q-0.6875 0 -0.984375 -0.265625q-0.296875 -0.265625 -0.296875 -0.6875q0 -0.40625 0.28125 -0.671875q0.296875 -0.28125 0.90625 -0.28125l0 -7.4375l-0.296875 0q-0.6875 0 -0.984375 -0.265625q-0.296875 -0.265625 -0.296875 -0.6875q0 -0.421875 0.296875 -0.6874981q0.296875 -0.265625 0.984375 -0.265625l2.203125 0l4.859375 7.624998l0 -5.71875l-0.6875 0q-0.6875 0 -0.984375 -0.265625q-0.296875 -0.265625 -0.296875 -0.6875q0 -0.421875 0.296875 -0.6874981q0.296875 -0.265625 0.984375 -0.265625l2.484375 0q0.6875 0 0.984375 0.265625q0.296875 0.2656231 0.296875 0.6874981q0 0.421875 -0.296875 0.6875q-0.28125 0.265625 -0.875 0.265625l0 9.34375l-1.890625 0l-4.875 -7.65625z" fill-rule="nonzero"></path><path fill="#ffffff" d="m618.24084 25.154856l59.370117 0l0 21.606298l-59.370117 0z" fill-rule="nonzero"></path><path fill="#000000" d="m638.28876 41.924877q0 0.53125 -0.390625 0.90625q-0.375 0.359375 -1.046875 0.359375q-0.65625 0 -1.046875 -0.359375q-0.375 -0.375 -0.375 -0.90625q0 -0.546875 0.375 -0.90625q0.390625 -0.359375 1.046875 -0.359375q0.671875 0 1.046875 0.359375q0.390625 0.359375 0.390625 0.90625zm11.195618 0q0 0.53125 -0.390625 0.90625q-0.375 0.359375 -1.046875 0.359375q-0.65625 0 -1.046875 -0.359375q-0.375 -0.375 -0.375 -0.90625q0 -0.546875 0.375 -0.90625q0.390625 -0.359375 1.046875 -0.359375q0.671875 0 1.046875 0.359375q0.390625 0.359375 0.390625 0.90625zm11.195557 0q0 0.53125 -0.390625 0.90625q-0.375 0.359375 -1.046875 0.359375q-0.65625 0 -1.046875 -0.359375q-0.375 -0.375 -0.375 -0.90625q0 -0.546875 0.375 -0.90625q0.390625 -0.359375 1.046875 -0.359375q0.671875 0 1.046875 0.359375q0.390625 0.359375 0.390625 0.90625z" fill-rule="nonzero"></path><path fill="#000000" fill-opacity="0.0" d="m703.8228 65.314964l231.81104 0l0 21.606293l-231.81104 0z" fill-rule="nonzero"></path><path fill="#000000" d="m751.97345 75.00686l-0.296875 1.421875q0.890625 -0.875 1.78125 -1.28125q0.890625 -0.421875 1.953125 -0.421875q1.5625 0 2.46875 0.90625q0.921875 0.890625 0.921875 2.296875q0 1.890625 -1.546875 3.40625q-1.546875 1.515625 -3.5625 1.515625q-2.078125 0 -3.015625 -1.703125l-1.0 4.6875l1.875 0q0.21875 0 0.28125 0.03125q0.078125 0.03125 0.125 0.109375q0.0625 0.078125 0.0625 0.171875q0 0.1875 -0.171875 0.328125q-0.15625 0.140625 -0.453125 0.140625l-3.71875 0q-0.25 0 -0.34375 -0.078125q-0.09375 -0.078125 -0.09375 -0.21875q0 -0.203125 0.15625 -0.34375q0.140625 -0.140625 0.453125 -0.140625l1.046875 0l2.140625 -10.046875l-1.046875 0q-0.265625 0 -0.359375 -0.078125q-0.09375 -0.078125 -0.09375 -0.234375q0 -0.1875 0.15625 -0.328125q0.15625 -0.140625 0.453125 -0.140625l1.828125 0zm1.859375 7.046875q1.65625 0 2.90625 -1.21875q1.265625 -1.21875 1.265625 -2.765625q0 -1.078125 -0.765625 -1.8125q-0.765625 -0.75 -1.953125 -0.75q-1.671875 0 -2.9375 1.21875q-1.25 1.21875 -1.25 2.71875q0 1.109375 0.765625 1.859375q0.765625 0.75 1.96875 0.75zm11.336182 -7.046875l-0.40625 1.96875q1.84375 -1.390625 2.671875 -1.78125q0.828125 -0.390625 1.46875 -0.390625q0.625 0 1.125 0.4375q0.515625 0.421875 0.515625 0.65625q0 0.203125 -0.15625 0.359375q-0.140625 0.140625 -0.34375 0.140625q-0.09375 0 -0.15625 -0.03125q-0.046875 -0.03125 -0.1875 -0.21875q-0.25 -0.3125 -0.46875 -0.4375q-0.21875 -0.125 -0.453125 -0.125q-0.515625 0 -1.328125 0.40625q-0.796875 0.40625 -2.90625 2.0l-0.90625 4.265625l3.453125 0q0.265625 0 0.359375 0.078125q0.09375 0.078125 0.09375 0.234375q0 0.1875 -0.15625 0.328125q-0.15625 0.140625 -0.46875 0.140625l-6.109375 0q-0.265625 0 -0.359375 -0.078125q-0.09375 -0.078125 -0.09375 -0.21875q0 -0.1875 0.140625 -0.3125q0.15625 -0.140625 0.46875 -0.140625l1.875 0l1.390625 -6.5l-1.4375 0q-0.265625 0 -0.359375 -0.078125q-0.09375 -0.078125 -0.09375 -0.21875q0 -0.203125 0.15625 -0.34375q0.15625 -0.140625 0.46875 -0.140625l2.203125 0zm10.336243 8.34375q-1.53125 0 -2.515625 -0.96875q-0.984375 -0.984375 -0.984375 -2.46875q0 -1.21875 0.734375 -2.46875q0.75 -1.265625 2.03125 -1.984375q1.296875 -0.734375 2.625 -0.734375q1.53125 0 2.515625 0.96875q0.984375 0.953125 0.984375 2.40625q0 1.25 -0.71875 2.5q-0.71875 1.234375 -2.03125 2.0q-1.296875 0.75 -2.640625 0.75zm0.171875 -0.78125q1.09375 0 2.15625 -0.609375q1.078125 -0.625 1.671875 -1.640625q0.59375 -1.03125 0.59375 -2.0625q0 -1.171875 -0.8125 -1.953125q-0.8125 -0.796875 -2.0625 -0.796875q-0.90625 0 -1.6875 0.359375q-0.765625 0.359375 -1.359375 0.921875q-0.59375 0.5625 -0.984375 1.34375q-0.390625 0.78125 -0.390625 1.625q0 1.21875 0.796875 2.015625q0.8125 0.796875 2.078125 0.796875zm15.914307 -6.78125q0.109375 -0.53125 0.203125 -0.625q0.15625 -0.15625 0.359375 -0.15625q0.125 0 0.203125 0.09375q0.09375 0.078125 0.09375 0.1875q0 0.09375 -0.015625 0.25l-0.390625 1.75q-0.0625 0.296875 -0.203125 0.421875q-0.125 0.109375 -0.296875 0.109375q-0.140625 0 -0.234375 -0.078125q-0.078125 -0.078125 -0.078125 -0.203125q0 -0.046875 0.015625 -0.171875q0.015625 -0.078125 0.015625 -0.15625q0 -0.625 -0.59375 -1.078125q-0.78125 -0.625 -2.078125 -0.625q-1.125 0 -2.125 0.5625q-1.0 0.546875 -1.625 1.640625q-0.625 1.09375 -0.625 2.171875q0 1.203125 0.765625 1.953125q0.78125 0.734375 2.140625 0.734375q0.890625 0 1.890625 -0.328125q1.015625 -0.328125 1.953125 -1.09375q0.234375 -0.171875 0.390625 -0.171875q0.140625 0 0.21875 0.078125q0.078125 0.078125 0.078125 0.203125q0 0.1875 -0.1875 0.375q-0.65625 0.6875 -1.96875 1.203125q-1.3125 0.515625 -2.640625 0.515625q-1.578125 0 -2.515625 -0.90625q-0.9375 -0.90625 -0.9375 -2.359375q0 -1.09375 0.46875 -2.09375q0.46875 -1.015625 1.1875 -1.703125q0.71875 -0.703125 1.65625 -1.125q0.9375 -0.4375 2.078125 -0.4375q0.90625 0 1.59375 0.265625q0.703125 0.265625 1.203125 0.796875zm11.445557 3.421875l-7.953125 0q-0.015625 0.28125 -0.015625 0.4375q0 1.265625 0.859375 2.09375q0.859375 0.828125 2.328125 0.828125q0.875 0 1.875 -0.28125q1.015625 -0.296875 1.734375 -0.765625q0.21875 -0.140625 0.34375 -0.140625q0.125 0 0.203125 0.09375q0.09375 0.078125 0.09375 0.21875q0 0.171875 -0.15625 0.3125q-0.421875 0.453125 -1.703125 0.90625q-1.28125 0.4375 -2.59375 0.4375q-1.71875 0 -2.75 -1.015625q-1.03125 -1.015625 -1.03125 -2.578125q0 -1.03125 0.4375 -1.9375q0.453125 -0.90625 1.171875 -1.5625q0.734375 -0.671875 1.6875 -1.09375q0.953125 -0.4375 2.078125 -0.4375q1.59375 0 2.5625 0.9375q0.96875 0.9375 0.96875 2.390625q0 0.484375 -0.140625 1.15625zm-0.640625 -0.796875q0.046875 -1.28125 -0.75 -2.09375q-0.828125 -0.8125 -2.203125 -0.8125q-1.328125 0 -2.5 0.796875q-1.15625 0.78125 -1.6875 2.109375l7.140625 0zm10.961182 -2.90625q0.0625 -0.265625 0.203125 -0.375q0.140625 -0.125 0.296875 -0.125q0.140625 0 0.234375 0.09375q0.09375 0.078125 0.09375 0.1875q0 0.09375 -0.046875 0.25l-0.28125 1.328125q-0.0625 0.28125 -0.203125 0.40625q-0.125 0.109375 -0.296875 0.109375q-0.140625 0 -0.234375 -0.078125q-0.078125 -0.078125 -0.078125 -0.1875l0.015625 -0.171875q0 -0.0625 0 -0.125q0 -0.5 -0.4375 -0.828125q-0.65625 -0.484375 -1.84375 -0.484375q-1.4375 0 -2.28125 0.625q-0.625 0.453125 -0.625 0.953125q0 0.5 0.546875 0.828125q0.390625 0.21875 1.671875 0.359375q1.296875 0.140625 1.859375 0.328125q0.78125 0.25 1.15625 0.734375q0.390625 0.46875 0.390625 1.0625q0 0.6875 -0.5 1.375q-0.5 0.6875 -1.53125 1.140625q-1.03125 0.4375 -2.328125 0.4375q-0.921875 0 -1.625 -0.25q-0.703125 -0.234375 -1.1875 -0.6875q-0.078125 0.375 -0.1875 0.484375q-0.15625 0.140625 -0.34375 0.140625q-0.125 0 -0.21875 -0.078125q-0.09375 -0.09375 -0.09375 -0.203125q0 -0.09375 0.03125 -0.234375l0.34375 -1.609375q0.0625 -0.28125 0.1875 -0.390625q0.140625 -0.125 0.328125 -0.125q0.125 0 0.203125 0.09375q0.09375 0.078125 0.09375 0.203125q0 0.078125 -0.03125 0.21875q-0.015625 0.125 -0.015625 0.1875q0 0.53125 0.546875 0.9375q0.71875 0.53125 2.109375 0.53125q1.65625 0 2.53125 -0.65625q0.875 -0.671875 0.875 -1.3125q0 -0.359375 -0.265625 -0.6875q-0.25 -0.34375 -0.765625 -0.546875q-0.515625 -0.203125 -1.703125 -0.328125q-1.1875 -0.125 -1.734375 -0.3125q-0.53125 -0.1875 -0.84375 -0.578125q-0.296875 -0.390625 -0.296875 -0.890625q0 -0.578125 0.390625 -1.140625q0.40625 -0.5625 1.328125 -0.96875q0.9375 -0.421875 2.09375 -0.421875q0.8125 0 1.421875 0.203125q0.625 0.1875 1.046875 0.578125zm11.195618 0q0.0625 -0.265625 0.203125 -0.375q0.140625 -0.125 0.296875 -0.125q0.140625 0 0.234375 0.09375q0.09375 0.078125 0.09375 0.1875q0 0.09375 -0.046875 0.25l-0.28125 1.328125q-0.0625 0.28125 -0.203125 0.40625q-0.125 0.109375 -0.296875 0.109375q-0.140625 0 -0.234375 -0.078125q-0.078125 -0.078125 -0.078125 -0.1875l0.015625 -0.171875q0 -0.0625 0 -0.125q0 -0.5 -0.4375 -0.828125q-0.65625 -0.484375 -1.84375 -0.484375q-1.4375 0 -2.28125 0.625q-0.625 0.453125 -0.625 0.953125q0 0.5 0.546875 0.828125q0.390625 0.21875 1.671875 0.359375q1.296875 0.140625 1.859375 0.328125q0.78125 0.25 1.15625 0.734375q0.390625 0.46875 0.390625 1.0625q0 0.6875 -0.5 1.375q-0.5 0.6875 -1.53125 1.140625q-1.03125 0.4375 -2.328125 0.4375q-0.921875 0 -1.625 -0.25q-0.703125 -0.234375 -1.1875 -0.6875q-0.078125 0.375 -0.1875 0.484375q-0.15625 0.140625 -0.34375 0.140625q-0.125 0 -0.21875 -0.078125q-0.09375 -0.09375 -0.09375 -0.203125q0 -0.09375 0.03125 -0.234375l0.34375 -1.609375q0.0625 -0.28125 0.1875 -0.390625q0.140625 -0.125 0.328125 -0.125q0.125 0 0.203125 0.09375q0.09375 0.078125 0.09375 0.203125q0 0.078125 -0.03125 0.21875q-0.015625 0.125 -0.015625 0.1875q0 0.53125 0.546875 0.9375q0.71875 0.53125 2.109375 0.53125q1.65625 0 2.53125 -0.65625q0.875 -0.671875 0.875 -1.3125q0 -0.359375 -0.265625 -0.6875q-0.25 -0.34375 -0.765625 -0.546875q-0.515625 -0.203125 -1.703125 -0.328125q-1.1875 -0.125 -1.734375 -0.3125q-0.53125 -0.1875 -0.84375 -0.578125q-0.296875 -0.390625 -0.296875 -0.890625q0 -0.578125 0.390625 -1.140625q0.40625 -0.5625 1.328125 -0.96875q0.9375 -0.421875 2.09375 -0.421875q0.8125 0 1.421875 0.203125q0.625 0.1875 1.046875 0.578125zm11.351807 12.734375l-10.859375 0q-0.21875 0 -0.28125 -0.03125q-0.0625 -0.03125 -0.109375 -0.109375q-0.0625 -0.078125 -0.0625 -0.171875q0 -0.1875 0.15625 -0.328125q0.15625 -0.140625 0.453125 -0.140625l10.875 0q0.25 0 0.34375 0.0625q0.109375 0.09375 0.109375 0.25q0 0.1875 -0.171875 0.328125q-0.15625 0.140625 -0.453125 0.140625zm9.804932 -17.234375l-0.4375 2.015625l-1.140625 0l0.4375 -2.015625l1.140625 0zm-0.8125 4.0l-1.546875 7.25l3.0625 0q0.265625 0 0.34375 0.078125q0.09375 0.078125 0.09375 0.234375q0 0.1875 -0.15625 0.328125q-0.140625 0.140625 -0.453125 0.140625l-6.90625 0q-0.25 0 -0.34375 -0.078125q-0.09375 -0.09375 -0.09375 -0.234375q0 -0.1875 0.15625 -0.328125q0.15625 -0.140625 0.453125 -0.140625l3.0625 0l1.375 -6.46875l-2.265625 0q-0.265625 0 -0.375 -0.078125q-0.09375 -0.078125 -0.09375 -0.234375q0 -0.1875 0.15625 -0.328125q0.171875 -0.140625 0.46875 -0.140625l3.0625 0zm8.258057 0l-0.25 1.171875q1.015625 -0.84375 1.734375 -1.140625q0.71875 -0.3125 1.5625 -0.3125q1.140625 0 1.796875 0.609375q0.65625 0.609375 0.65625 1.59375q0 0.1875 -0.046875 0.421875l-1.046875 4.90625l0.65625 0q0.265625 0 0.359375 0.078125q0.09375 0.078125 0.09375 0.234375q0 0.1875 -0.15625 0.328125q-0.15625 0.140625 -0.46875 0.140625l-2.09375 0q-0.25 0 -0.34375 -0.078125q-0.09375 -0.09375 -0.09375 -0.234375q0 -0.1875 0.140625 -0.328125q0.15625 -0.140625 0.46875 -0.140625l0.65625 0l1.015625 -4.78125q0.046875 -0.203125 0.046875 -0.40625q0 -0.671875 -0.484375 -1.109375q-0.46875 -0.453125 -1.34375 -0.453125q-0.8125 0 -1.453125 0.328125q-0.625 0.328125 -1.90625 1.53125l-1.046875 4.890625l0.890625 0q0.25 0 0.34375 0.078125q0.09375 0.078125 0.09375 0.234375q0 0.1875 -0.15625 0.328125q-0.140625 0.140625 -0.453125 0.140625l-2.546875 0q-0.25 0 -0.34375 -0.078125q-0.09375 -0.09375 -0.09375 -0.234375q0 -0.1875 0.140625 -0.328125q0.15625 -0.140625 0.46875 -0.140625l0.875 0l1.375 -6.46875l-0.65625 0q-0.25 0 -0.34375 -0.078125q-0.09375 -0.078125 -0.09375 -0.234375q0 -0.1875 0.140625 -0.328125q0.15625 -0.140625 0.46875 -0.140625l1.4375 0zm14.883118 -3.609375l-2.3125 10.859375l3.0625 0q0.265625 0 0.359375 0.078125q0.09375 0.078125 0.09375 0.234375q0 0.1875 -0.15625 0.328125q-0.15625 0.140625 -0.453125 0.140625l-6.90625 0q-0.265625 0 -0.359375 -0.078125q-0.09375 -0.09375 -0.09375 -0.234375q0 -0.1875 0.15625 -0.328125q0.15625 -0.140625 0.46875 -0.140625l3.0625 0l2.140625 -10.078125l-2.265625 0q-0.25 0 -0.34375 -0.078125q-0.09375 -0.078125 -0.09375 -0.234375q0 -0.1875 0.140625 -0.328125q0.15625 -0.140625 0.46875 -0.140625l3.03125 0zm11.258057 -0.390625l-0.4375 2.015625l-1.140625 0l0.4375 -2.015625l1.140625 0zm-0.8125 4.0l-1.546875 7.25l3.0625 0q0.265625 0 0.34375 0.078125q0.09375 0.078125 0.09375 0.234375q0 0.1875 -0.15625 0.328125q-0.140625 0.140625 -0.453125 0.140625l-6.90625 0q-0.25 0 -0.34375 -0.078125q-0.09375 -0.09375 -0.09375 -0.234375q0 -0.1875 0.15625 -0.328125q0.15625 -0.140625 0.453125 -0.140625l3.0625 0l1.375 -6.46875l-2.265625 0q-0.265625 0 -0.375 -0.078125q-0.09375 -0.078125 -0.09375 -0.234375q0 -0.1875 0.15625 -0.328125q0.171875 -0.140625 0.46875 -0.140625l3.0625 0zm8.258057 0l-0.25 1.171875q1.015625 -0.84375 1.734375 -1.140625q0.71875 -0.3125 1.5625 -0.3125q1.140625 0 1.796875 0.609375q0.65625 0.609375 0.65625 1.59375q0 0.1875 -0.046875 0.421875l-1.046875 4.90625l0.65625 0q0.265625 0 0.359375 0.078125q0.09375 0.078125 0.09375 0.234375q0 0.1875 -0.15625 0.328125q-0.15625 0.140625 -0.46875 0.140625l-2.09375 0q-0.25 0 -0.34375 -0.078125q-0.09375 -0.09375 -0.09375 -0.234375q0 -0.1875 0.140625 -0.328125q0.15625 -0.140625 0.46875 -0.140625l0.65625 0l1.015625 -4.78125q0.046875 -0.203125 0.046875 -0.40625q0 -0.671875 -0.484375 -1.109375q-0.46875 -0.453125 -1.34375 -0.453125q-0.8125 0 -1.453125 0.328125q-0.625 0.328125 -1.90625 1.53125l-1.046875 4.890625l0.890625 0q0.25 0 0.34375 0.078125q0.09375 0.078125 0.09375 0.234375q0 0.1875 -0.15625 0.328125q-0.140625 0.140625 -0.453125 0.140625l-2.546875 0q-0.25 0 -0.34375 -0.078125q-0.09375 -0.09375 -0.09375 -0.234375q0 -0.1875 0.140625 -0.328125q0.15625 -0.140625 0.46875 -0.140625l0.875 0l1.375 -6.46875l-0.65625 0q-0.25 0 -0.34375 -0.078125q-0.09375 -0.078125 -0.09375 -0.234375q0 -0.1875 0.140625 -0.328125q0.15625 -0.140625 0.46875 -0.140625l1.4375 0zm17.054932 4.203125l-7.953125 0q-0.015625 0.28125 -0.015625 0.4375q0 1.265625 0.859375 2.09375q0.859375 0.828125 2.328125 0.828125q0.875 0 1.875 -0.28125q1.015625 -0.296875 1.734375 -0.765625q0.21875 -0.140625 0.34375 -0.140625q0.125 0 0.203125 0.09375q0.09375 0.078125 0.09375 0.21875q0 0.171875 -0.15625 0.3125q-0.421875 0.453125 -1.703125 0.90625q-1.28125 0.4375 -2.59375 0.4375q-1.71875 0 -2.75 -1.015625q-1.03125 -1.015625 -1.03125 -2.578125q0 -1.03125 0.4375 -1.9375q0.453125 -0.90625 1.171875 -1.5625q0.734375 -0.671875 1.6875 -1.09375q0.953125 -0.4375 2.078125 -0.4375q1.59375 0 2.5625 0.9375q0.96875 0.9375 0.96875 2.390625q0 0.484375 -0.140625 1.15625zm-0.640625 -0.796875q0.046875 -1.28125 -0.75 -2.09375q-0.828125 -0.8125 -2.203125 -0.8125q-1.328125 0 -2.5 0.796875q-1.15625 0.78125 -1.6875 2.109375l7.140625 0zm11.914368 -7.015625q0.140625 0 0.234375 0.09375q0.09375 0.078125 0.09375 0.203125q0 0.140625 -0.109375 0.28125q-1.90625 2.484375 -2.71875 4.5625q-0.796875 2.078125 -0.796875 4.15625q0 1.859375 0.75 4.09375q0.046875 0.15625 0.046875 0.203125q0 0.171875 -0.15625 0.3125q-0.140625 0.140625 -0.328125 0.140625q-0.125 0 -0.203125 -0.09375q-0.296875 -0.296875 -0.78125 -1.9375q-0.46875 -1.640625 -0.46875 -2.859375q0 -1.65625 0.453125 -3.078125q0.46875 -1.4375 1.171875 -2.59375q0.703125 -1.171875 1.640625 -2.359375q0.703125 -0.890625 0.921875 -1.046875q0.125 -0.078125 0.25 -0.078125zm3.0393066 14.046875q-0.140625 0 -0.234375 -0.09375q-0.09375 -0.078125 -0.09375 -0.203125q0 -0.140625 0.109375 -0.296875q1.890625 -2.453125 2.703125 -4.53125q0.8125 -2.078125 0.8125 -4.171875q0 -1.859375 -0.75 -4.109375q-0.046875 -0.140625 -0.046875 -0.171875q0 -0.1875 0.140625 -0.328125q0.15625 -0.140625 0.34375 -0.140625q0.125 0 0.203125 0.078125q0.296875 0.296875 0.765625 1.953125q0.484375 1.640625 0.484375 2.859375q0 1.65625 -0.46875 3.078125q-0.453125 1.40625 -1.140625 2.5625q-0.6875 1.140625 -1.65625 2.375q-0.703125 0.890625 -0.9375 1.046875q-0.109375 0.09375 -0.234375 0.09375z" fill-rule="nonzero"></path><path fill="#000000" fill-opacity="0.0" d="m50.34894 36.420547l38.204723 0" fill-rule="nonzero"></path><path stroke="#000000" stroke-width="2.0" stroke-linejoin="round" stroke-linecap="butt" d="m50.34894 36.420547l26.204723 0" fill-rule="evenodd"></path><path fill="#000000" stroke="#000000" stroke-width="2.0" stroke-linecap="butt" d="m76.553665 39.72401l9.076195 -3.303463l-9.076195 -3.3034668z" fill-rule="evenodd"></path><path fill="#cfe2f3" d="m19.377953 12.370976l29.82677 0l0 46.80315l-29.82677 0z" fill-rule="nonzero"></path><path stroke="#000000" stroke-width="2.0" stroke-linejoin="round" stroke-linecap="butt" d="m19.377953 12.370976l29.82677 0l0 46.80315l-29.82677 0z" fill-rule="nonzero"></path></g></svg>

