<?xml version="1.0" encoding="utf-8"?>
<!-- Generator: Adobe Illustrator 16.0.0, SVG Export Plug-In . SVG Version: 6.00 Build 0)  -->
<!DOCTYPE svg PUBLIC "-//W3C//DTD SVG 1.1//EN" "http://www.w3.org/Graphics/SVG/1.1/DTD/svg11.dtd">
<svg version="1.1" id="Layer_1" xmlns="http://www.w3.org/2000/svg" xmlns:xlink="http://www.w3.org/1999/xlink" x="0px" y="0px"
	 width="52.707px" height="91.38px" viewBox="0 0 52.707 91.38" enable-background="new 0 0 52.707 91.38" xml:space="preserve">
<g>
	<g>
		<rect x="32.942" y="49.539" fill="none" width="0" height="15.216"/>
		<polygon fill="none" points="39.531,38.129 39.531,53.343 39.531,53.343 39.531,53.343 39.531,53.343 39.531,38.129 
			39.531,38.128 39.531,38.128 		"/>
		<polygon fill="none" points="26.354,60.951 26.354,60.951 26.354,60.951 		"/>
		
			<rect x="25.335" y="34.325" transform="matrix(-0.8661 -0.4999 0.4999 -0.8661 44.3135 80.5209)" fill="none" width="15.215" height="0"/>
		<polygon fill="none" points="26.354,30.521 26.354,30.521 26.354,30.521 		"/>
		<g>
			<polygon fill="none" points="39.531,68.558 39.531,68.558 26.354,76.166 39.531,68.558 			"/>
		</g>
		<polygon fill="#808080" points="26.354,60.951 26.354,60.951 13.178,53.343 		"/>
		<polygon fill="#808080" points="13.178,38.129 13.178,38.129 13.178,38.129 		"/>
	</g>
	<g>
		<rect x="32.942" y="49.539" fill="none" width="0" height="15.216"/>
		<polygon fill="none" points="39.531,38.129 39.531,53.343 39.531,53.343 39.531,53.343 39.531,53.343 39.531,38.129 
			39.531,38.128 39.531,38.128 		"/>
		<polygon fill="none" points="26.354,60.951 26.354,60.951 26.354,60.951 		"/>
		
			<rect x="25.335" y="34.325" transform="matrix(-0.8661 -0.4999 0.4999 -0.8661 44.3135 80.5209)" fill="none" width="15.215" height="0"/>
		<polygon fill="none" points="26.354,30.521 26.354,30.521 26.354,30.521 		"/>
		<g>
			<polygon fill="none" points="39.531,68.558 39.531,68.558 26.354,76.166 39.531,68.558 			"/>
		</g>
		<polygon fill="#808080" points="26.354,60.951 26.354,60.951 13.178,53.343 		"/>
		<polygon fill="#808080" points="13.178,38.129 13.178,38.129 13.178,38.129 		"/>
	</g>
	<g>
		<polyline points="39.531,53.345 39.531,53.343 26.354,60.951 26.354,60.951 13.178,53.343 13.178,38.129 0,30.521 0,60.951 
			26.354,76.166 39.531,68.558 52.707,60.951 52.707,30.521 39.531,38.128 39.531,38.129 39.531,53.343 39.531,53.343 		"/>
	</g>
	<polygon fill="#939598" points="39.531,38.128 26.354,45.736 26.354,60.951 39.531,53.343 39.531,38.129 	"/>
	<polygon fill="#BCBEC0" points="13.178,38.129 13.178,53.343 26.354,60.951 26.354,60.951 26.354,45.736 	"/>
	<polygon fill="#414042" points="26.354,15.306 13.178,22.913 13.178,0 0.001,7.607 0.002,7.607 0.002,30.521 0,30.521 
		13.178,38.129 26.354,30.521 26.354,30.521 39.531,38.128 52.707,30.521 	"/>
	<polygon fill="#1A1A1A" points="39.531,68.558 39.531,68.558 13.148,83.757 26.354,91.38 52.707,76.166 52.707,60.951 
		39.531,68.558 	"/>
	<polygon fill="#939598" points="39.531,38.128 26.354,45.736 26.354,60.951 39.531,53.343 39.531,38.129 	"/>
	<polygon fill="#BCBEC0" points="13.178,38.129 13.178,53.343 26.354,60.951 26.354,60.951 26.354,45.736 	"/>
	<polygon fill="#FFFFFF" points="26.354,30.521 26.354,30.521 13.178,38.129 26.354,45.736 39.531,38.128 	"/>
</g>
</svg>
